<svg xmlns="http://www.w3.org/2000/svg" width="640" height="420" viewBox="0 0 640 420" fill="none">

<defs>
  <linearGradient id="g" x1="0" y1="0" x2="1" y2="1">
    <stop offset="0%" stop-color="#22D3EE"/>
    <stop offset="55%" stop-color="#2563EB"/>
    <stop offset="100%" stop-color="#6366F1"/>
  </linearGradient>
  <linearGradient id="gDark" x1="0" y1="0" x2="1" y2="1">
    <stop offset="0%" stop-color="#60A5FA"/>
    <stop offset="100%" stop-color="#818CF8"/>
  </linearGradient>
  <style>
    .s0{stroke:#0B1220}
    .s1{stroke:url(#g)}
    .s2{stroke:#2563EB}
    .fill0{fill:#0B1220}
    .fill1{fill:url(#g)}
    .round{stroke-linecap:round;stroke-linejoin:round}
    .nofill{fill:none}
  </style>
</defs>



<g transform="translate(40 35)">
  <path d="M80 250 C170 120, 270 70, 400 75 C460 76, 505 100, 535 138
           C520 160, 500 172, 470 176 C480 192, 488 210, 490 226
           C478 236, 466 240, 451 240 C435 226, 425 214, 413 203
           C365 192, 313 186, 250 192 C213 220, 182 254, 152 308
           C123 312, 102 300, 80 250 Z"
        fill="#050816" stroke="url(#g)" stroke-width="8" stroke-linejoin="round"/>
  <path d="M177 156 C239 118, 306 96, 376 96
           M214 196 C286 158, 368 144, 455 148
           M260 238 C332 212, 404 205, 468 206" class="nofill s1 round" stroke-width="6"/>
  <path d="M432 126 C444 118, 458 117, 470 123" stroke="#22D3EE" stroke-width="6" stroke-linecap="round"/>
  <circle cx="463" cy="124" r="10" fill="#22D3EE"/>
  <path d="M92 240 L24 240 M120 210 L46 198 M156 178 L84 154" class="nofill s1 round" stroke-width="4"/>
  <circle cx="24" cy="240" r="5" fill="#2563EB"/><circle cx="46" cy="198" r="5" fill="#2563EB"/><circle cx="84" cy="154" r="5" fill="#2563EB"/>
</g>

</svg>