<svg width="320" height="320" viewBox="0 0 320 320" fill="none" xmlns="http://www.w3.org/2000/svg">
  <rect width="320" height="320" rx="48" fill="#081614"/>
  <rect x="28" y="28" width="264" height="264" rx="34" stroke="#9BE7D2" stroke-opacity="0.14" stroke-width="2"/>
  <g filter="url(#filter0_f_4_2)">
    <circle cx="230" cy="90" r="46" fill="#4FC4F2" fill-opacity="0.16"/>
  </g>
  <g filter="url(#filter1_f_4_2)">
    <circle cx="108" cy="214" r="54" fill="#1AA07E" fill-opacity="0.16"/>
  </g>
  <path d="M70 100C70 90.0589 78.0589 82 88 82H232C241.941 82 250 90.0589 250 100V122C250 131.941 241.941 140 232 140H88C78.0589 140 70 131.941 70 122V100Z" fill="url(#paint0_linear_4_2)"/>
  <path d="M92 144C92 134.059 100.059 126 110 126H210C219.941 126 228 134.059 228 144V166C228 175.941 219.941 184 210 184H110C100.059 184 92 175.941 92 166V144Z" fill="url(#paint1_linear_4_2)"/>
  <path d="M114 188C114 178.059 122.059 170 132 170H188C197.941 170 206 178.059 206 188V210C206 219.941 197.941 228 188 228H132C122.059 228 114 219.941 114 210V188Z" fill="url(#paint2_linear_4_2)"/>
  <path d="M70 111H250" stroke="white" stroke-opacity="0.08" stroke-width="2"/>
  <path d="M92 155H228" stroke="#0B1715" stroke-opacity="0.1" stroke-width="2"/>
  <path d="M114 199H206" stroke="white" stroke-opacity="0.08" stroke-width="2"/>
  <circle cx="238" cy="82" r="10" fill="#E7FFF7"/>
  <defs>
    <filter id="filter0_f_4_2" x="136" y="-4" width="188" height="188" filterUnits="userSpaceOnUse" color-interpolation-filters="sRGB">
      <feFlood flood-opacity="0" result="BackgroundImageFix"/>
      <feBlend mode="normal" in="SourceGraphic" in2="BackgroundImageFix" result="shape"/>
      <feGaussianBlur stdDeviation="24" result="effect1_foregroundBlur_4_2"/>
    </filter>
    <filter id="filter1_f_4_2" x="6" y="112" width="204" height="204" filterUnits="userSpaceOnUse" color-interpolation-filters="sRGB">
      <feFlood flood-opacity="0" result="BackgroundImageFix"/>
      <feBlend mode="normal" in="SourceGraphic" in2="BackgroundImageFix" result="shape"/>
      <feGaussianBlur stdDeviation="24" result="effect1_foregroundBlur_4_2"/>
    </filter>
    <linearGradient id="paint0_linear_4_2" x1="70" y1="111" x2="250" y2="111" gradientUnits="userSpaceOnUse">
      <stop stop-color="#179777"/>
      <stop offset="1" stop-color="#4FC4F2"/>
    </linearGradient>
    <linearGradient id="paint1_linear_4_2" x1="92" y1="155" x2="228" y2="155" gradientUnits="userSpaceOnUse">
      <stop stop-color="#F3FFFB"/>
      <stop offset="1" stop-color="#A0E7D4"/>
    </linearGradient>
    <linearGradient id="paint2_linear_4_2" x1="114" y1="199" x2="206" y2="199" gradientUnits="userSpaceOnUse">
      <stop stop-color="#1AA07E"/>
      <stop offset="1" stop-color="#9BE7D2"/>
    </linearGradient>
  </defs>
</svg>
