<svg width="320" height="320" viewBox="0 0 320 320" fill="none" xmlns="http://www.w3.org/2000/svg">
  <rect width="320" height="320" rx="48" fill="#0A1413"/>
  <rect x="28" y="28" width="264" height="264" rx="34" stroke="#91E1CC" stroke-opacity="0.16" stroke-width="2"/>
  <g filter="url(#filter0_f_5_2)">
    <circle cx="222" cy="110" r="54" fill="#4FC4F2" fill-opacity="0.14"/>
  </g>
  <path d="M80 94C80 84.0589 88.0589 76 98 76H222C231.941 76 240 84.0589 240 94V116C240 125.941 231.941 134 222 134H172V242H148V134H98C88.0589 134 80 125.941 80 116V94Z" fill="url(#paint0_linear_5_2)"/>
  <path d="M148 134H172V242H148V134Z" fill="#E7FFF7"/>
  <path d="M203 170C203 163.373 208.373 158 215 158H241C247.627 158 253 163.373 253 170V196C253 202.627 247.627 208 241 208H215C208.373 208 203 202.627 203 196V170Z" fill="url(#paint1_linear_5_2)"/>
  <path d="M96 106H224" stroke="white" stroke-opacity="0.08" stroke-width="2"/>
  <circle cx="241" cy="88" r="9" fill="#EFFFF8"/>
  <defs>
    <filter id="filter0_f_5_2" x="120" y="8" width="204" height="204" filterUnits="userSpaceOnUse" color-interpolation-filters="sRGB">
      <feFlood flood-opacity="0" result="BackgroundImageFix"/>
      <feBlend mode="normal" in="SourceGraphic" in2="BackgroundImageFix" result="shape"/>
      <feGaussianBlur stdDeviation="24" result="effect1_foregroundBlur_5_2"/>
    </filter>
    <linearGradient id="paint0_linear_5_2" x1="80" y1="159" x2="240" y2="159" gradientUnits="userSpaceOnUse">
      <stop stop-color="#169674"/>
      <stop offset="1" stop-color="#94E4CF"/>
    </linearGradient>
    <linearGradient id="paint1_linear_5_2" x1="203" y1="183" x2="253" y2="183" gradientUnits="userSpaceOnUse">
      <stop stop-color="#1AA07E"/>
      <stop offset="1" stop-color="#4FC4F2"/>
    </linearGradient>
  </defs>
</svg>
