<svg width="320" height="320" viewBox="0 0 320 320" fill="none" xmlns="http://www.w3.org/2000/svg">
  <rect width="320" height="320" rx="48" fill="#081614"/>
  <rect x="28" y="28" width="264" height="264" rx="34" stroke="#93E2CD" stroke-opacity="0.14" stroke-width="2"/>
  <circle cx="160" cy="160" r="34" fill="url(#paint0_linear_3_1)"/>
  <path d="M88 160C88 120.235 120.235 88 160 88C184.684 88 206.465 100.417 219.442 119.34" stroke="#9BE7D2" stroke-width="14" stroke-linecap="round"/>
  <path d="M232 160C232 199.765 199.765 232 160 232C135.316 232 113.535 219.583 100.558 200.66" stroke="#4FC4F2" stroke-width="14" stroke-linecap="round"/>
  <circle cx="223" cy="126" r="15" fill="#D9FFF1"/>
  <circle cx="97" cy="194" r="13" fill="#1AA07E"/>
  <path d="M146 154L160 140L174 154L160 168L146 154Z" fill="#081614"/>
  <defs>
    <linearGradient id="paint0_linear_3_1" x1="126" y1="126" x2="194" y2="194" gradientUnits="userSpaceOnUse">
      <stop stop-color="#1AA07E"/>
      <stop offset="1" stop-color="#4FC4F2"/>
    </linearGradient>
  </defs>
</svg>
