<svg width="16" height="16" viewBox="0 0 16 16" fill="none" xmlns="http://www.w3.org/2000/svg">
<rect width="16" height="16" rx="1.67385" fill="black"/>
<g clip-path="url(#paint0_angular_1308_810_clip_path)" data-figma-skip-parse="true"><g transform="matrix(0 0.00637539 -0.00605538 0 7.2861 7.26149)"><foreignObject x="-1239.38" y="-1239.38" width="2478.76" height="2478.76"><div xmlns="http://www.w3.org/1999/xhtml" style="background:conic-gradient(from 90deg,rgba(61, 150, 255, 1) 0deg,rgba(0, 212, 255, 1) 45.069deg,rgba(120, 97, 255, 1) 70.9615deg,rgba(76, 136, 255, 1) 348.931deg,rgba(61, 150, 255, 1) 360deg);height:100%;width:100%;opacity:1"></div></foreignObject></g></g><path d="M7.61227 4.35509L10.1158 9.50096C10.307 9.74544 10.4055 9.78951 10.6454 9.78951H13.3415C13.3415 9.78951 9.82692 2.81844 9.1529 1.66421C8.47887 0.509979 6.60766 0.750448 6.11979 1.66421C5.63192 2.57797 1.78675 9.54905 1.35347 10.8475C0.920186 12.146 1.62075 13.3782 3.66441 13.6369C3.45348 13.5134 3.12173 12.9066 3.276 12.6269L4.17779 11.0747L7.61227 4.35509Z" data-figma-gradient-fill="{&#34;type&#34;:&#34;GRADIENT_ANGULAR&#34;,&#34;stops&#34;:[{&#34;color&#34;:{&#34;r&#34;:0.0,&#34;g&#34;:0.83137255907058716,&#34;b&#34;:1.0,&#34;a&#34;:1.0},&#34;position&#34;:0.12519158422946930},{&#34;color&#34;:{&#34;r&#34;:0.47058823704719543,&#34;g&#34;:0.38039216399192810,&#34;b&#34;:1.0,&#34;a&#34;:1.0},&#34;position&#34;:0.19711539149284363},{&#34;color&#34;:{&#34;r&#34;:0.29803922772407532,&#34;g&#34;:0.53333336114883423,&#34;b&#34;:1.0,&#34;a&#34;:1.0},&#34;position&#34;:0.96925187110900879}],&#34;stopsVar&#34;:[{&#34;color&#34;:{&#34;r&#34;:0.0,&#34;g&#34;:0.83137255907058716,&#34;b&#34;:1.0,&#34;a&#34;:1.0},&#34;position&#34;:0.12519158422946930},{&#34;color&#34;:{&#34;r&#34;:0.47058823704719543,&#34;g&#34;:0.38039216399192810,&#34;b&#34;:1.0,&#34;a&#34;:1.0},&#34;position&#34;:0.19711539149284363},{&#34;color&#34;:{&#34;r&#34;:0.29803922772407532,&#34;g&#34;:0.53333336114883423,&#34;b&#34;:1.0,&#34;a&#34;:1.0},&#34;position&#34;:0.96925187110900879}],&#34;transform&#34;:{&#34;m00&#34;:7.4157078081579873e-16,&#34;m01&#34;:-12.110768318176270,&#34;m02&#34;:13.341481208801270,&#34;m10&#34;:12.750769615173340,&#34;m11&#34;:7.8075950127434778e-16,&#34;m12&#34;:0.88610839843750},&#34;opacity&#34;:1.0,&#34;blendMode&#34;:&#34;NORMAL&#34;,&#34;visible&#34;:true}"/>
<g clip-path="url(#paint1_angular_1308_810_clip_path)" data-figma-skip-parse="true"><g transform="matrix(0 0.00637539 -0.00605538 0 7.2861 7.26149)"><foreignObject x="-1239.38" y="-1239.38" width="2478.76" height="2478.76"><div xmlns="http://www.w3.org/1999/xhtml" style="background:conic-gradient(from 90deg,rgba(61, 150, 255, 1) 0deg,rgba(0, 212, 255, 1) 45.069deg,rgba(120, 97, 255, 1) 70.9615deg,rgba(76, 136, 255, 1) 348.931deg,rgba(61, 150, 255, 1) 360deg);height:100%;width:100%;opacity:1"></div></foreignObject></g></g><path d="M3.66441 13.6369C3.66441 13.6369 5.78275 12.627 6.74567 12.146C7.70859 11.6651 9.10476 12.7712 9.10476 12.7712C9.10476 12.7712 8.44644 10.7032 8.14186 10.2223C7.83728 9.74144 7.32338 9.74144 6.79382 9.88569C6.26425 10.0299 4.17779 11.0747 4.17779 11.0747L3.276 12.6269C3.12173 12.9066 3.45348 13.5134 3.66441 13.6369Z" data-figma-gradient-fill="{&#34;type&#34;:&#34;GRADIENT_ANGULAR&#34;,&#34;stops&#34;:[{&#34;color&#34;:{&#34;r&#34;:0.0,&#34;g&#34;:0.83137255907058716,&#34;b&#34;:1.0,&#34;a&#34;:1.0},&#34;position&#34;:0.12519158422946930},{&#34;color&#34;:{&#34;r&#34;:0.47058823704719543,&#34;g&#34;:0.38039216399192810,&#34;b&#34;:1.0,&#34;a&#34;:1.0},&#34;position&#34;:0.19711539149284363},{&#34;color&#34;:{&#34;r&#34;:0.29803922772407532,&#34;g&#34;:0.53333336114883423,&#34;b&#34;:1.0,&#34;a&#34;:1.0},&#34;position&#34;:0.96925187110900879}],&#34;stopsVar&#34;:[{&#34;color&#34;:{&#34;r&#34;:0.0,&#34;g&#34;:0.83137255907058716,&#34;b&#34;:1.0,&#34;a&#34;:1.0},&#34;position&#34;:0.12519158422946930},{&#34;color&#34;:{&#34;r&#34;:0.47058823704719543,&#34;g&#34;:0.38039216399192810,&#34;b&#34;:1.0,&#34;a&#34;:1.0},&#34;position&#34;:0.19711539149284363},{&#34;color&#34;:{&#34;r&#34;:0.29803922772407532,&#34;g&#34;:0.53333336114883423,&#34;b&#34;:1.0,&#34;a&#34;:1.0},&#34;position&#34;:0.96925187110900879}],&#34;transform&#34;:{&#34;m00&#34;:7.4157078081579873e-16,&#34;m01&#34;:-12.110768318176270,&#34;m02&#34;:13.341481208801270,&#34;m10&#34;:12.750769615173340,&#34;m11&#34;:7.8075950127434778e-16,&#34;m12&#34;:0.88610839843750},&#34;opacity&#34;:1.0,&#34;blendMode&#34;:&#34;NORMAL&#34;,&#34;visible&#34;:true}"/>
<g clip-path="url(#paint2_angular_1308_810_clip_path)" data-figma-skip-parse="true"><g transform="matrix(0 0.00637539 -0.00605538 0 7.2861 7.26149)"><foreignObject x="-1239.38" y="-1239.38" width="2478.76" height="2478.76"><div xmlns="http://www.w3.org/1999/xhtml" style="background:conic-gradient(from 90deg,rgba(61, 150, 255, 1) 0deg,rgba(0, 212, 255, 1) 45.069deg,rgba(120, 97, 255, 1) 70.9615deg,rgba(76, 136, 255, 1) 348.931deg,rgba(61, 150, 255, 1) 360deg);height:100%;width:100%;opacity:1"></div></foreignObject></g></g><path d="M14.7199 13.3415C14.7199 14.3203 13.9265 15.1138 12.9476 15.1138C11.9688 15.1138 11.1753 14.3203 11.1753 13.3415C11.1753 12.3627 11.9688 11.5692 12.9476 11.5692C13.9265 11.5692 14.7199 12.3627 14.7199 13.3415Z" data-figma-gradient-fill="{&#34;type&#34;:&#34;GRADIENT_ANGULAR&#34;,&#34;stops&#34;:[{&#34;color&#34;:{&#34;r&#34;:0.0,&#34;g&#34;:0.83137255907058716,&#34;b&#34;:1.0,&#34;a&#34;:1.0},&#34;position&#34;:0.12519158422946930},{&#34;color&#34;:{&#34;r&#34;:0.47058823704719543,&#34;g&#34;:0.38039216399192810,&#34;b&#34;:1.0,&#34;a&#34;:1.0},&#34;position&#34;:0.19711539149284363},{&#34;color&#34;:{&#34;r&#34;:0.29803922772407532,&#34;g&#34;:0.53333336114883423,&#34;b&#34;:1.0,&#34;a&#34;:1.0},&#34;position&#34;:0.96925187110900879}],&#34;stopsVar&#34;:[{&#34;color&#34;:{&#34;r&#34;:0.0,&#34;g&#34;:0.83137255907058716,&#34;b&#34;:1.0,&#34;a&#34;:1.0},&#34;position&#34;:0.12519158422946930},{&#34;color&#34;:{&#34;r&#34;:0.47058823704719543,&#34;g&#34;:0.38039216399192810,&#34;b&#34;:1.0,&#34;a&#34;:1.0},&#34;position&#34;:0.19711539149284363},{&#34;color&#34;:{&#34;r&#34;:0.29803922772407532,&#34;g&#34;:0.53333336114883423,&#34;b&#34;:1.0,&#34;a&#34;:1.0},&#34;position&#34;:0.96925187110900879}],&#34;transform&#34;:{&#34;m00&#34;:7.4157078081579873e-16,&#34;m01&#34;:-12.110768318176270,&#34;m02&#34;:13.341481208801270,&#34;m10&#34;:12.750769615173340,&#34;m11&#34;:7.8075950127434778e-16,&#34;m12&#34;:0.88610839843750},&#34;opacity&#34;:1.0,&#34;blendMode&#34;:&#34;NORMAL&#34;,&#34;visible&#34;:true}"/>
<defs>
<clipPath id="paint0_angular_1308_810_clip_path"><path d="M7.61227 4.35509L10.1158 9.50096C10.307 9.74544 10.4055 9.78951 10.6454 9.78951H13.3415C13.3415 9.78951 9.82692 2.81844 9.1529 1.66421C8.47887 0.509979 6.60766 0.750448 6.11979 1.66421C5.63192 2.57797 1.78675 9.54905 1.35347 10.8475C0.920186 12.146 1.62075 13.3782 3.66441 13.6369C3.45348 13.5134 3.12173 12.9066 3.276 12.6269L4.17779 11.0747L7.61227 4.35509Z"/></clipPath><clipPath id="paint1_angular_1308_810_clip_path"><path d="M3.66441 13.6369C3.66441 13.6369 5.78275 12.627 6.74567 12.146C7.70859 11.6651 9.10476 12.7712 9.10476 12.7712C9.10476 12.7712 8.44644 10.7032 8.14186 10.2223C7.83728 9.74144 7.32338 9.74144 6.79382 9.88569C6.26425 10.0299 4.17779 11.0747 4.17779 11.0747L3.276 12.6269C3.12173 12.9066 3.45348 13.5134 3.66441 13.6369Z"/></clipPath><clipPath id="paint2_angular_1308_810_clip_path"><path d="M14.7199 13.3415C14.7199 14.3203 13.9265 15.1138 12.9476 15.1138C11.9688 15.1138 11.1753 14.3203 11.1753 13.3415C11.1753 12.3627 11.9688 11.5692 12.9476 11.5692C13.9265 11.5692 14.7199 12.3627 14.7199 13.3415Z"/></clipPath></defs>
</svg>
