<svg width="192" height="193" viewBox="0 0 192 193" fill="none" xmlns="http://www.w3.org/2000/svg">
<rect width="192" height="193" rx="96" fill="black"/>
<g clip-path="url(#paint0_angular_1308_828_clip_path)" data-figma-skip-parse="true"><g transform="matrix(0 0.0638647 -0.0606592 0 89.0417 89.7431)"><foreignObject x="-1239.38" y="-1239.38" width="2478.76" height="2478.76"><div xmlns="http://www.w3.org/1999/xhtml" style="background:conic-gradient(from 90deg,rgba(61, 150, 255, 1) 0deg,rgba(0, 212, 255, 1) 45.069deg,rgba(120, 97, 255, 1) 70.9615deg,rgba(76, 136, 255, 1) 348.931deg,rgba(61, 150, 255, 1) 360deg);height:100%;width:100%;opacity:1"></div></foreignObject></g></g><path d="M92.3091 60.6286L117.388 112.177C119.303 114.626 120.29 115.067 122.693 115.067H149.701C149.701 115.067 114.494 45.2353 107.742 33.673C100.99 22.1106 82.2455 24.5195 77.3584 33.673C72.4712 42.8265 33.9527 112.658 29.6123 125.666C25.2719 138.673 32.2897 151.017 52.7619 153.608C50.6489 152.371 47.3256 146.292 48.871 143.491L57.9046 127.941L92.3091 60.6286Z" data-figma-gradient-fill="{&#34;type&#34;:&#34;GRADIENT_ANGULAR&#34;,&#34;stops&#34;:[{&#34;color&#34;:{&#34;r&#34;:0.0,&#34;g&#34;:0.83137255907058716,&#34;b&#34;:1.0,&#34;a&#34;:1.0},&#34;position&#34;:0.12519158422946930},{&#34;color&#34;:{&#34;r&#34;:0.47058823704719543,&#34;g&#34;:0.38039216399192810,&#34;b&#34;:1.0,&#34;a&#34;:1.0},&#34;position&#34;:0.19711539149284363},{&#34;color&#34;:{&#34;r&#34;:0.29803922772407532,&#34;g&#34;:0.53333336114883423,&#34;b&#34;:1.0,&#34;a&#34;:1.0},&#34;position&#34;:0.96925187110900879}],&#34;stopsVar&#34;:[{&#34;color&#34;:{&#34;r&#34;:0.0,&#34;g&#34;:0.83137255907058716,&#34;b&#34;:1.0,&#34;a&#34;:1.0},&#34;position&#34;:0.12519158422946930},{&#34;color&#34;:{&#34;r&#34;:0.47058823704719543,&#34;g&#34;:0.38039216399192810,&#34;b&#34;:1.0,&#34;a&#34;:1.0},&#34;position&#34;:0.19711539149284363},{&#34;color&#34;:{&#34;r&#34;:0.29803922772407532,&#34;g&#34;:0.53333336114883423,&#34;b&#34;:1.0,&#34;a&#34;:1.0},&#34;position&#34;:0.96925187110900879}],&#34;transform&#34;:{&#34;m00&#34;:7.4286043082964076e-15,&#34;m01&#34;:-121.31830596923828,&#34;m02&#34;:149.70086669921875,&#34;m10&#34;:127.72945404052734,&#34;m11&#34;:7.8211735861626747e-15,&#34;m12&#34;:25.878417968750},&#34;opacity&#34;:1.0,&#34;blendMode&#34;:&#34;NORMAL&#34;,&#34;visible&#34;:true}"/>
<g clip-path="url(#paint1_angular_1308_828_clip_path)" data-figma-skip-parse="true"><g transform="matrix(0 0.0638647 -0.0606592 0 89.0417 89.7431)"><foreignObject x="-1239.38" y="-1239.38" width="2478.76" height="2478.76"><div xmlns="http://www.w3.org/1999/xhtml" style="background:conic-gradient(from 90deg,rgba(61, 150, 255, 1) 0deg,rgba(0, 212, 255, 1) 45.069deg,rgba(120, 97, 255, 1) 70.9615deg,rgba(76, 136, 255, 1) 348.931deg,rgba(61, 150, 255, 1) 360deg);height:100%;width:100%;opacity:1"></div></foreignObject></g></g><path d="M52.7619 153.608C52.7619 153.608 73.9821 143.491 83.6281 138.673C93.274 133.856 107.26 144.936 107.26 144.936C107.26 144.936 100.665 124.22 97.6143 119.403C94.5631 114.586 89.4152 114.586 84.1103 116.031C78.8055 117.476 57.9046 127.941 57.9046 127.941L48.871 143.491C47.3256 146.292 50.6489 152.371 52.7619 153.608Z" data-figma-gradient-fill="{&#34;type&#34;:&#34;GRADIENT_ANGULAR&#34;,&#34;stops&#34;:[{&#34;color&#34;:{&#34;r&#34;:0.0,&#34;g&#34;:0.83137255907058716,&#34;b&#34;:1.0,&#34;a&#34;:1.0},&#34;position&#34;:0.12519158422946930},{&#34;color&#34;:{&#34;r&#34;:0.47058823704719543,&#34;g&#34;:0.38039216399192810,&#34;b&#34;:1.0,&#34;a&#34;:1.0},&#34;position&#34;:0.19711539149284363},{&#34;color&#34;:{&#34;r&#34;:0.29803922772407532,&#34;g&#34;:0.53333336114883423,&#34;b&#34;:1.0,&#34;a&#34;:1.0},&#34;position&#34;:0.96925187110900879}],&#34;stopsVar&#34;:[{&#34;color&#34;:{&#34;r&#34;:0.0,&#34;g&#34;:0.83137255907058716,&#34;b&#34;:1.0,&#34;a&#34;:1.0},&#34;position&#34;:0.12519158422946930},{&#34;color&#34;:{&#34;r&#34;:0.47058823704719543,&#34;g&#34;:0.38039216399192810,&#34;b&#34;:1.0,&#34;a&#34;:1.0},&#34;position&#34;:0.19711539149284363},{&#34;color&#34;:{&#34;r&#34;:0.29803922772407532,&#34;g&#34;:0.53333336114883423,&#34;b&#34;:1.0,&#34;a&#34;:1.0},&#34;position&#34;:0.96925187110900879}],&#34;transform&#34;:{&#34;m00&#34;:7.4286043082964076e-15,&#34;m01&#34;:-121.31830596923828,&#34;m02&#34;:149.70086669921875,&#34;m10&#34;:127.72945404052734,&#34;m11&#34;:7.8211735861626747e-15,&#34;m12&#34;:25.878417968750},&#34;opacity&#34;:1.0,&#34;blendMode&#34;:&#34;NORMAL&#34;,&#34;visible&#34;:true}"/>
<g clip-path="url(#paint2_angular_1308_828_clip_path)" data-figma-skip-parse="true"><g transform="matrix(0 0.0638647 -0.0606592 0 89.0417 89.7431)"><foreignObject x="-1239.38" y="-1239.38" width="2478.76" height="2478.76"><div xmlns="http://www.w3.org/1999/xhtml" style="background:conic-gradient(from 90deg,rgba(61, 150, 255, 1) 0deg,rgba(0, 212, 255, 1) 45.069deg,rgba(120, 97, 255, 1) 70.9615deg,rgba(76, 136, 255, 1) 348.931deg,rgba(61, 150, 255, 1) 360deg);height:100%;width:100%;opacity:1"></div></foreignObject></g></g><path d="M163.509 150.649C163.509 160.454 155.561 168.403 145.756 168.403C135.95 168.403 128.002 160.454 128.002 150.649C128.002 140.844 135.95 132.895 145.756 132.895C155.561 132.895 163.509 140.844 163.509 150.649Z" data-figma-gradient-fill="{&#34;type&#34;:&#34;GRADIENT_ANGULAR&#34;,&#34;stops&#34;:[{&#34;color&#34;:{&#34;r&#34;:0.0,&#34;g&#34;:0.83137255907058716,&#34;b&#34;:1.0,&#34;a&#34;:1.0},&#34;position&#34;:0.12519158422946930},{&#34;color&#34;:{&#34;r&#34;:0.47058823704719543,&#34;g&#34;:0.38039216399192810,&#34;b&#34;:1.0,&#34;a&#34;:1.0},&#34;position&#34;:0.19711539149284363},{&#34;color&#34;:{&#34;r&#34;:0.29803922772407532,&#34;g&#34;:0.53333336114883423,&#34;b&#34;:1.0,&#34;a&#34;:1.0},&#34;position&#34;:0.96925187110900879}],&#34;stopsVar&#34;:[{&#34;color&#34;:{&#34;r&#34;:0.0,&#34;g&#34;:0.83137255907058716,&#34;b&#34;:1.0,&#34;a&#34;:1.0},&#34;position&#34;:0.12519158422946930},{&#34;color&#34;:{&#34;r&#34;:0.47058823704719543,&#34;g&#34;:0.38039216399192810,&#34;b&#34;:1.0,&#34;a&#34;:1.0},&#34;position&#34;:0.19711539149284363},{&#34;color&#34;:{&#34;r&#34;:0.29803922772407532,&#34;g&#34;:0.53333336114883423,&#34;b&#34;:1.0,&#34;a&#34;:1.0},&#34;position&#34;:0.96925187110900879}],&#34;transform&#34;:{&#34;m00&#34;:7.4286043082964076e-15,&#34;m01&#34;:-121.31830596923828,&#34;m02&#34;:149.70086669921875,&#34;m10&#34;:127.72945404052734,&#34;m11&#34;:7.8211735861626747e-15,&#34;m12&#34;:25.878417968750},&#34;opacity&#34;:1.0,&#34;blendMode&#34;:&#34;NORMAL&#34;,&#34;visible&#34;:true}"/>
<defs>
<clipPath id="paint0_angular_1308_828_clip_path"><path d="M92.3091 60.6286L117.388 112.177C119.303 114.626 120.29 115.067 122.693 115.067H149.701C149.701 115.067 114.494 45.2353 107.742 33.673C100.99 22.1106 82.2455 24.5195 77.3584 33.673C72.4712 42.8265 33.9527 112.658 29.6123 125.666C25.2719 138.673 32.2897 151.017 52.7619 153.608C50.6489 152.371 47.3256 146.292 48.871 143.491L57.9046 127.941L92.3091 60.6286Z"/></clipPath><clipPath id="paint1_angular_1308_828_clip_path"><path d="M52.7619 153.608C52.7619 153.608 73.9821 143.491 83.6281 138.673C93.274 133.856 107.26 144.936 107.26 144.936C107.26 144.936 100.665 124.22 97.6143 119.403C94.5631 114.586 89.4152 114.586 84.1103 116.031C78.8055 117.476 57.9046 127.941 57.9046 127.941L48.871 143.491C47.3256 146.292 50.6489 152.371 52.7619 153.608Z"/></clipPath><clipPath id="paint2_angular_1308_828_clip_path"><path d="M163.509 150.649C163.509 160.454 155.561 168.403 145.756 168.403C135.95 168.403 128.002 160.454 128.002 150.649C128.002 140.844 135.95 132.895 145.756 132.895C155.561 132.895 163.509 140.844 163.509 150.649Z"/></clipPath></defs>
</svg>
