<svg width="96" height="96" viewBox="0 0 96 96" fill="none" xmlns="http://www.w3.org/2000/svg">
<rect width="96" height="96" rx="10.0431" fill="black"/>
<g clip-path="url(#paint0_angular_1308_814_clip_path)" data-figma-skip-parse="true"><g transform="matrix(0 0.0382523 -0.0363323 0 43.7166 43.5692)"><foreignObject x="-1239.38" y="-1239.38" width="2478.76" height="2478.76"><div xmlns="http://www.w3.org/1999/xhtml" style="background:conic-gradient(from 90deg,rgba(61, 150, 255, 1) 0deg,rgba(0, 212, 255, 1) 45.069deg,rgba(120, 97, 255, 1) 70.9615deg,rgba(76, 136, 255, 1) 348.931deg,rgba(61, 150, 255, 1) 360deg);height:100%;width:100%;opacity:1"></div></foreignObject></g></g><path d="M45.6736 26.1308L60.6948 57.006C61.8421 58.4729 62.4329 58.7373 63.8723 58.7373H80.0489C80.0489 58.7373 58.9615 16.9109 54.9174 9.9855C50.8732 3.06012 39.646 4.50293 36.7187 9.9855C33.7915 15.4681 10.7205 57.2945 8.12082 65.0855C5.52112 72.8764 9.72452 80.2696 21.9865 81.8215C20.7209 81.0808 18.7304 77.4399 19.656 75.7619L25.0667 66.4483L45.6736 26.1308Z" data-figma-gradient-fill="{&#34;type&#34;:&#34;GRADIENT_ANGULAR&#34;,&#34;stops&#34;:[{&#34;color&#34;:{&#34;r&#34;:0.0,&#34;g&#34;:0.83137255907058716,&#34;b&#34;:1.0,&#34;a&#34;:1.0},&#34;position&#34;:0.12519158422946930},{&#34;color&#34;:{&#34;r&#34;:0.47058823704719543,&#34;g&#34;:0.38039216399192810,&#34;b&#34;:1.0,&#34;a&#34;:1.0},&#34;position&#34;:0.19711539149284363},{&#34;color&#34;:{&#34;r&#34;:0.29803922772407532,&#34;g&#34;:0.53333336114883423,&#34;b&#34;:1.0,&#34;a&#34;:1.0},&#34;position&#34;:0.96925187110900879}],&#34;stopsVar&#34;:[{&#34;color&#34;:{&#34;r&#34;:0.0,&#34;g&#34;:0.83137255907058716,&#34;b&#34;:1.0,&#34;a&#34;:1.0},&#34;position&#34;:0.12519158422946930},{&#34;color&#34;:{&#34;r&#34;:0.47058823704719543,&#34;g&#34;:0.38039216399192810,&#34;b&#34;:1.0,&#34;a&#34;:1.0},&#34;position&#34;:0.19711539149284363},{&#34;color&#34;:{&#34;r&#34;:0.29803922772407532,&#34;g&#34;:0.53333336114883423,&#34;b&#34;:1.0,&#34;a&#34;:1.0},&#34;position&#34;:0.96925187110900879}],&#34;transform&#34;:{&#34;m00&#34;:4.4494246848947924e-15,&#34;m01&#34;:-72.664611816406250,&#34;m02&#34;:80.048889160156250,&#34;m10&#34;:76.504623413085938,&#34;m11&#34;:4.6845572194043235e-15,&#34;m12&#34;:5.316894531250},&#34;opacity&#34;:1.0,&#34;blendMode&#34;:&#34;NORMAL&#34;,&#34;visible&#34;:true}"/>
<g clip-path="url(#paint1_angular_1308_814_clip_path)" data-figma-skip-parse="true"><g transform="matrix(0 0.0382523 -0.0363323 0 43.7166 43.5692)"><foreignObject x="-1239.38" y="-1239.38" width="2478.76" height="2478.76"><div xmlns="http://www.w3.org/1999/xhtml" style="background:conic-gradient(from 90deg,rgba(61, 150, 255, 1) 0deg,rgba(0, 212, 255, 1) 45.069deg,rgba(120, 97, 255, 1) 70.9615deg,rgba(76, 136, 255, 1) 348.931deg,rgba(61, 150, 255, 1) 360deg);height:100%;width:100%;opacity:1"></div></foreignObject></g></g><path d="M21.9865 81.8215C21.9865 81.8215 34.6965 75.762 40.474 72.8764C46.2515 69.9907 54.6285 76.6276 54.6285 76.6276C54.6285 76.6276 50.6787 64.2197 48.8512 61.3343C47.0237 58.4489 43.9403 58.4489 40.7629 59.3144C37.5855 60.1799 25.0667 66.4483 25.0667 66.4483L19.656 75.7619C18.7304 77.4399 20.7209 81.0808 21.9865 81.8215Z" data-figma-gradient-fill="{&#34;type&#34;:&#34;GRADIENT_ANGULAR&#34;,&#34;stops&#34;:[{&#34;color&#34;:{&#34;r&#34;:0.0,&#34;g&#34;:0.83137255907058716,&#34;b&#34;:1.0,&#34;a&#34;:1.0},&#34;position&#34;:0.12519158422946930},{&#34;color&#34;:{&#34;r&#34;:0.47058823704719543,&#34;g&#34;:0.38039216399192810,&#34;b&#34;:1.0,&#34;a&#34;:1.0},&#34;position&#34;:0.19711539149284363},{&#34;color&#34;:{&#34;r&#34;:0.29803922772407532,&#34;g&#34;:0.53333336114883423,&#34;b&#34;:1.0,&#34;a&#34;:1.0},&#34;position&#34;:0.96925187110900879}],&#34;stopsVar&#34;:[{&#34;color&#34;:{&#34;r&#34;:0.0,&#34;g&#34;:0.83137255907058716,&#34;b&#34;:1.0,&#34;a&#34;:1.0},&#34;position&#34;:0.12519158422946930},{&#34;color&#34;:{&#34;r&#34;:0.47058823704719543,&#34;g&#34;:0.38039216399192810,&#34;b&#34;:1.0,&#34;a&#34;:1.0},&#34;position&#34;:0.19711539149284363},{&#34;color&#34;:{&#34;r&#34;:0.29803922772407532,&#34;g&#34;:0.53333336114883423,&#34;b&#34;:1.0,&#34;a&#34;:1.0},&#34;position&#34;:0.96925187110900879}],&#34;transform&#34;:{&#34;m00&#34;:4.4494246848947924e-15,&#34;m01&#34;:-72.664611816406250,&#34;m02&#34;:80.048889160156250,&#34;m10&#34;:76.504623413085938,&#34;m11&#34;:4.6845572194043235e-15,&#34;m12&#34;:5.316894531250},&#34;opacity&#34;:1.0,&#34;blendMode&#34;:&#34;NORMAL&#34;,&#34;visible&#34;:true}"/>
<g clip-path="url(#paint2_angular_1308_814_clip_path)" data-figma-skip-parse="true"><g transform="matrix(0 0.0382523 -0.0363323 0 43.7166 43.5692)"><foreignObject x="-1239.38" y="-1239.38" width="2478.76" height="2478.76"><div xmlns="http://www.w3.org/1999/xhtml" style="background:conic-gradient(from 90deg,rgba(61, 150, 255, 1) 0deg,rgba(0, 212, 255, 1) 45.069deg,rgba(120, 97, 255, 1) 70.9615deg,rgba(76, 136, 255, 1) 348.931deg,rgba(61, 150, 255, 1) 360deg);height:100%;width:100%;opacity:1"></div></foreignObject></g></g><path d="M88.3197 80.0492C88.3197 85.9221 83.5587 90.6831 77.6858 90.6831C71.8129 90.6831 67.052 85.9221 67.052 80.0492C67.052 74.1763 71.8129 69.4154 77.6858 69.4154C83.5587 69.4154 88.3197 74.1763 88.3197 80.0492Z" data-figma-gradient-fill="{&#34;type&#34;:&#34;GRADIENT_ANGULAR&#34;,&#34;stops&#34;:[{&#34;color&#34;:{&#34;r&#34;:0.0,&#34;g&#34;:0.83137255907058716,&#34;b&#34;:1.0,&#34;a&#34;:1.0},&#34;position&#34;:0.12519158422946930},{&#34;color&#34;:{&#34;r&#34;:0.47058823704719543,&#34;g&#34;:0.38039216399192810,&#34;b&#34;:1.0,&#34;a&#34;:1.0},&#34;position&#34;:0.19711539149284363},{&#34;color&#34;:{&#34;r&#34;:0.29803922772407532,&#34;g&#34;:0.53333336114883423,&#34;b&#34;:1.0,&#34;a&#34;:1.0},&#34;position&#34;:0.96925187110900879}],&#34;stopsVar&#34;:[{&#34;color&#34;:{&#34;r&#34;:0.0,&#34;g&#34;:0.83137255907058716,&#34;b&#34;:1.0,&#34;a&#34;:1.0},&#34;position&#34;:0.12519158422946930},{&#34;color&#34;:{&#34;r&#34;:0.47058823704719543,&#34;g&#34;:0.38039216399192810,&#34;b&#34;:1.0,&#34;a&#34;:1.0},&#34;position&#34;:0.19711539149284363},{&#34;color&#34;:{&#34;r&#34;:0.29803922772407532,&#34;g&#34;:0.53333336114883423,&#34;b&#34;:1.0,&#34;a&#34;:1.0},&#34;position&#34;:0.96925187110900879}],&#34;transform&#34;:{&#34;m00&#34;:4.4494246848947924e-15,&#34;m01&#34;:-72.664611816406250,&#34;m02&#34;:80.048889160156250,&#34;m10&#34;:76.504623413085938,&#34;m11&#34;:4.6845572194043235e-15,&#34;m12&#34;:5.316894531250},&#34;opacity&#34;:1.0,&#34;blendMode&#34;:&#34;NORMAL&#34;,&#34;visible&#34;:true}"/>
<defs>
<clipPath id="paint0_angular_1308_814_clip_path"><path d="M45.6736 26.1308L60.6948 57.006C61.8421 58.4729 62.4329 58.7373 63.8723 58.7373H80.0489C80.0489 58.7373 58.9615 16.9109 54.9174 9.9855C50.8732 3.06012 39.646 4.50293 36.7187 9.9855C33.7915 15.4681 10.7205 57.2945 8.12082 65.0855C5.52112 72.8764 9.72452 80.2696 21.9865 81.8215C20.7209 81.0808 18.7304 77.4399 19.656 75.7619L25.0667 66.4483L45.6736 26.1308Z"/></clipPath><clipPath id="paint1_angular_1308_814_clip_path"><path d="M21.9865 81.8215C21.9865 81.8215 34.6965 75.762 40.474 72.8764C46.2515 69.9907 54.6285 76.6276 54.6285 76.6276C54.6285 76.6276 50.6787 64.2197 48.8512 61.3343C47.0237 58.4489 43.9403 58.4489 40.7629 59.3144C37.5855 60.1799 25.0667 66.4483 25.0667 66.4483L19.656 75.7619C18.7304 77.4399 20.7209 81.0808 21.9865 81.8215Z"/></clipPath><clipPath id="paint2_angular_1308_814_clip_path"><path d="M88.3197 80.0492C88.3197 85.9221 83.5587 90.6831 77.6858 90.6831C71.8129 90.6831 67.052 85.9221 67.052 80.0492C67.052 74.1763 71.8129 69.4154 77.6858 69.4154C83.5587 69.4154 88.3197 74.1763 88.3197 80.0492Z"/></clipPath></defs>
</svg>
