<svg width="16" height="16" viewBox="0 0 16 16" fill="none" xmlns="http://www.w3.org/2000/svg">
<rect width="16" height="16" rx="8" fill="black"/>
<g clip-path="url(#paint0_angular_1308_822_clip_path)" data-figma-skip-parse="true"><g transform="matrix(0 0.00364308 -0.00346022 0 7.46022 7.64308)"><foreignObject x="-1239.38" y="-1239.38" width="2478.76" height="2478.76"><div xmlns="http://www.w3.org/1999/xhtml" style="background:conic-gradient(from 90deg,rgba(61, 150, 255, 1) 0deg,rgba(0, 212, 255, 1) 45.069deg,rgba(120, 97, 255, 1) 70.9615deg,rgba(76, 136, 255, 1) 348.931deg,rgba(61, 150, 255, 1) 360deg);height:100%;width:100%;opacity:1"></div></foreignObject></g></g><path d="M7.64661 5.98228L9.07719 8.92277C9.18646 9.06248 9.24272 9.08766 9.37981 9.08766H10.9204C10.9204 9.08766 8.91212 5.10419 8.52696 4.44463C8.14181 3.78507 7.07254 3.92248 6.79376 4.44463C6.51498 4.96678 4.31774 8.95025 4.07015 9.69224C3.82256 10.4342 4.22288 11.1384 5.39069 11.2862C5.27015 11.2156 5.08058 10.8689 5.16873 10.709L5.68404 9.82204L7.64661 5.98228Z" data-figma-gradient-fill="{&#34;type&#34;:&#34;GRADIENT_ANGULAR&#34;,&#34;stops&#34;:[{&#34;color&#34;:{&#34;r&#34;:0.0,&#34;g&#34;:0.83137255907058716,&#34;b&#34;:1.0,&#34;a&#34;:1.0},&#34;position&#34;:0.12519158422946930},{&#34;color&#34;:{&#34;r&#34;:0.47058823704719543,&#34;g&#34;:0.38039216399192810,&#34;b&#34;:1.0,&#34;a&#34;:1.0},&#34;position&#34;:0.19711539149284363},{&#34;color&#34;:{&#34;r&#34;:0.29803922772407532,&#34;g&#34;:0.53333336114883423,&#34;b&#34;:1.0,&#34;a&#34;:1.0},&#34;position&#34;:0.96925187110900879}],&#34;stopsVar&#34;:[{&#34;color&#34;:{&#34;r&#34;:0.0,&#34;g&#34;:0.83137255907058716,&#34;b&#34;:1.0,&#34;a&#34;:1.0},&#34;position&#34;:0.12519158422946930},{&#34;color&#34;:{&#34;r&#34;:0.47058823704719543,&#34;g&#34;:0.38039216399192810,&#34;b&#34;:1.0,&#34;a&#34;:1.0},&#34;position&#34;:0.19711539149284363},{&#34;color&#34;:{&#34;r&#34;:0.29803922772407532,&#34;g&#34;:0.53333336114883423,&#34;b&#34;:1.0,&#34;a&#34;:1.0},&#34;position&#34;:0.96925187110900879}],&#34;transform&#34;:{&#34;m00&#34;:4.2375472811334504e-16,&#34;m01&#34;:-6.9204387664794922,&#34;m02&#34;:10.920438766479492,&#34;m10&#34;:7.2861542701721191,&#34;m11&#34;:4.4614824106571941e-16,&#34;m12&#34;:4.0},&#34;opacity&#34;:1.0,&#34;blendMode&#34;:&#34;NORMAL&#34;,&#34;visible&#34;:true}"/>
<g clip-path="url(#paint1_angular_1308_822_clip_path)" data-figma-skip-parse="true"><g transform="matrix(0 0.00364308 -0.00346022 0 7.46022 7.64308)"><foreignObject x="-1239.38" y="-1239.38" width="2478.76" height="2478.76"><div xmlns="http://www.w3.org/1999/xhtml" style="background:conic-gradient(from 90deg,rgba(61, 150, 255, 1) 0deg,rgba(0, 212, 255, 1) 45.069deg,rgba(120, 97, 255, 1) 70.9615deg,rgba(76, 136, 255, 1) 348.931deg,rgba(61, 150, 255, 1) 360deg);height:100%;width:100%;opacity:1"></div></foreignObject></g></g><path d="M5.39069 11.2862C5.39069 11.2862 6.60117 10.7091 7.1514 10.4342C7.70164 10.1594 8.49945 10.7915 8.49945 10.7915C8.49945 10.7915 8.12328 9.60979 7.94923 9.33499C7.77518 9.06019 7.48152 9.06019 7.17892 9.14262C6.87631 9.22505 5.68404 9.82204 5.68404 9.82204L5.16873 10.709C5.08058 10.8689 5.27015 11.2156 5.39069 11.2862Z" data-figma-gradient-fill="{&#34;type&#34;:&#34;GRADIENT_ANGULAR&#34;,&#34;stops&#34;:[{&#34;color&#34;:{&#34;r&#34;:0.0,&#34;g&#34;:0.83137255907058716,&#34;b&#34;:1.0,&#34;a&#34;:1.0},&#34;position&#34;:0.12519158422946930},{&#34;color&#34;:{&#34;r&#34;:0.47058823704719543,&#34;g&#34;:0.38039216399192810,&#34;b&#34;:1.0,&#34;a&#34;:1.0},&#34;position&#34;:0.19711539149284363},{&#34;color&#34;:{&#34;r&#34;:0.29803922772407532,&#34;g&#34;:0.53333336114883423,&#34;b&#34;:1.0,&#34;a&#34;:1.0},&#34;position&#34;:0.96925187110900879}],&#34;stopsVar&#34;:[{&#34;color&#34;:{&#34;r&#34;:0.0,&#34;g&#34;:0.83137255907058716,&#34;b&#34;:1.0,&#34;a&#34;:1.0},&#34;position&#34;:0.12519158422946930},{&#34;color&#34;:{&#34;r&#34;:0.47058823704719543,&#34;g&#34;:0.38039216399192810,&#34;b&#34;:1.0,&#34;a&#34;:1.0},&#34;position&#34;:0.19711539149284363},{&#34;color&#34;:{&#34;r&#34;:0.29803922772407532,&#34;g&#34;:0.53333336114883423,&#34;b&#34;:1.0,&#34;a&#34;:1.0},&#34;position&#34;:0.96925187110900879}],&#34;transform&#34;:{&#34;m00&#34;:4.2375472811334504e-16,&#34;m01&#34;:-6.9204387664794922,&#34;m02&#34;:10.920438766479492,&#34;m10&#34;:7.2861542701721191,&#34;m11&#34;:4.4614824106571941e-16,&#34;m12&#34;:4.0},&#34;opacity&#34;:1.0,&#34;blendMode&#34;:&#34;NORMAL&#34;,&#34;visible&#34;:true}"/>
<g clip-path="url(#paint2_angular_1308_822_clip_path)" data-figma-skip-parse="true"><g transform="matrix(0 0.00364308 -0.00346022 0 7.46022 7.64308)"><foreignObject x="-1239.38" y="-1239.38" width="2478.76" height="2478.76"><div xmlns="http://www.w3.org/1999/xhtml" style="background:conic-gradient(from 90deg,rgba(61, 150, 255, 1) 0deg,rgba(0, 212, 255, 1) 45.069deg,rgba(120, 97, 255, 1) 70.9615deg,rgba(76, 136, 255, 1) 348.931deg,rgba(61, 150, 255, 1) 360deg);height:100%;width:100%;opacity:1"></div></foreignObject></g></g><path d="M11.7081 11.1174C11.7081 11.6767 11.2547 12.1301 10.6954 12.1301C10.1361 12.1301 9.68264 11.6767 9.68264 11.1174C9.68264 10.558 10.1361 10.1046 10.6954 10.1046C11.2547 10.1046 11.7081 10.558 11.7081 11.1174Z" data-figma-gradient-fill="{&#34;type&#34;:&#34;GRADIENT_ANGULAR&#34;,&#34;stops&#34;:[{&#34;color&#34;:{&#34;r&#34;:0.0,&#34;g&#34;:0.83137255907058716,&#34;b&#34;:1.0,&#34;a&#34;:1.0},&#34;position&#34;:0.12519158422946930},{&#34;color&#34;:{&#34;r&#34;:0.47058823704719543,&#34;g&#34;:0.38039216399192810,&#34;b&#34;:1.0,&#34;a&#34;:1.0},&#34;position&#34;:0.19711539149284363},{&#34;color&#34;:{&#34;r&#34;:0.29803922772407532,&#34;g&#34;:0.53333336114883423,&#34;b&#34;:1.0,&#34;a&#34;:1.0},&#34;position&#34;:0.96925187110900879}],&#34;stopsVar&#34;:[{&#34;color&#34;:{&#34;r&#34;:0.0,&#34;g&#34;:0.83137255907058716,&#34;b&#34;:1.0,&#34;a&#34;:1.0},&#34;position&#34;:0.12519158422946930},{&#34;color&#34;:{&#34;r&#34;:0.47058823704719543,&#34;g&#34;:0.38039216399192810,&#34;b&#34;:1.0,&#34;a&#34;:1.0},&#34;position&#34;:0.19711539149284363},{&#34;color&#34;:{&#34;r&#34;:0.29803922772407532,&#34;g&#34;:0.53333336114883423,&#34;b&#34;:1.0,&#34;a&#34;:1.0},&#34;position&#34;:0.96925187110900879}],&#34;transform&#34;:{&#34;m00&#34;:4.2375472811334504e-16,&#34;m01&#34;:-6.9204387664794922,&#34;m02&#34;:10.920438766479492,&#34;m10&#34;:7.2861542701721191,&#34;m11&#34;:4.4614824106571941e-16,&#34;m12&#34;:4.0},&#34;opacity&#34;:1.0,&#34;blendMode&#34;:&#34;NORMAL&#34;,&#34;visible&#34;:true}"/>
<defs>
<clipPath id="paint0_angular_1308_822_clip_path"><path d="M7.64661 5.98228L9.07719 8.92277C9.18646 9.06248 9.24272 9.08766 9.37981 9.08766H10.9204C10.9204 9.08766 8.91212 5.10419 8.52696 4.44463C8.14181 3.78507 7.07254 3.92248 6.79376 4.44463C6.51498 4.96678 4.31774 8.95025 4.07015 9.69224C3.82256 10.4342 4.22288 11.1384 5.39069 11.2862C5.27015 11.2156 5.08058 10.8689 5.16873 10.709L5.68404 9.82204L7.64661 5.98228Z"/></clipPath><clipPath id="paint1_angular_1308_822_clip_path"><path d="M5.39069 11.2862C5.39069 11.2862 6.60117 10.7091 7.1514 10.4342C7.70164 10.1594 8.49945 10.7915 8.49945 10.7915C8.49945 10.7915 8.12328 9.60979 7.94923 9.33499C7.77518 9.06019 7.48152 9.06019 7.17892 9.14262C6.87631 9.22505 5.68404 9.82204 5.68404 9.82204L5.16873 10.709C5.08058 10.8689 5.27015 11.2156 5.39069 11.2862Z"/></clipPath><clipPath id="paint2_angular_1308_822_clip_path"><path d="M11.7081 11.1174C11.7081 11.6767 11.2547 12.1301 10.6954 12.1301C10.1361 12.1301 9.68264 11.6767 9.68264 11.1174C9.68264 10.558 10.1361 10.1046 10.6954 10.1046C11.2547 10.1046 11.7081 10.558 11.7081 11.1174Z"/></clipPath></defs>
</svg>
