<svg xmlns="http://www.w3.org/2000/svg" width="512" height="512" viewBox="0 0 512 512" fill="none">

<defs>
  <linearGradient id="g" x1="0" y1="0" x2="1" y2="1">
    <stop offset="0%" stop-color="#22D3EE"/>
    <stop offset="55%" stop-color="#2563EB"/>
    <stop offset="100%" stop-color="#6366F1"/>
  </linearGradient>
  <linearGradient id="gDark" x1="0" y1="0" x2="1" y2="1">
    <stop offset="0%" stop-color="#60A5FA"/>
    <stop offset="100%" stop-color="#818CF8"/>
  </linearGradient>
  <style>
    .s0{stroke:#0B1220}
    .s1{stroke:url(#g)}
    .s2{stroke:#2563EB}
    .fill0{fill:#0B1220}
    .fill1{fill:url(#g)}
    .round{stroke-linecap:round;stroke-linejoin:round}
    .nofill{fill:none}
  </style>
</defs>



    <g transform="translate(128 128)">
      <circle cx="128" cy="128" r="96" class="nofill s1 round" stroke-width="10" stroke-dasharray="418 124"/>
      <circle cx="128" cy="128" r="74" class="nofill s2 round" stroke-width="7" stroke-dasharray="2 18" opacity="0.62"/>
      <circle cx="128" cy="20" r="12" class="nofill s1" stroke-width="7"/>
      <circle cx="236" cy="128" r="12" class="nofill s1" stroke-width="7"/>
      <circle cx="128" cy="236" r="12" class="nofill s1" stroke-width="7"/>
      <circle cx="20" cy="128" r="12" class="nofill s1" stroke-width="7"/>
      
      <path d="M82 112 A60 60 0 0 1 174 100" class="nofill s1 round" stroke-width="8"/>
      <path d="M174 100 L160 98 L169 112" class="nofill s1 round" stroke-width="8"/>
      <path d="M174 144 A60 60 0 0 1 82 156" class="nofill s0 round" stroke-width="8"/>
      <path d="M82 156 L96 158 L87 144" class="nofill s0 round" stroke-width="8"/>
      <circle cx="128" cy="128" r="18" class="nofill s0" stroke-width="8"/>
      <path d="M119 128 L126 135 L139 121" class="nofill s1 round" stroke-width="8"/>
    
    </g>
    
</svg>