<svg xmlns="http://www.w3.org/2000/svg" width="512" height="512" viewBox="0 0 512 512" fill="none">

<defs>
  <linearGradient id="g" x1="0" y1="0" x2="1" y2="1">
    <stop offset="0%" stop-color="#22D3EE"/>
    <stop offset="55%" stop-color="#2563EB"/>
    <stop offset="100%" stop-color="#6366F1"/>
  </linearGradient>
  <linearGradient id="gDark" x1="0" y1="0" x2="1" y2="1">
    <stop offset="0%" stop-color="#60A5FA"/>
    <stop offset="100%" stop-color="#818CF8"/>
  </linearGradient>
  <style>
    .s0{stroke:#0B1220}
    .s1{stroke:url(#g)}
    .s2{stroke:#2563EB}
    .fill0{fill:#0B1220}
    .fill1{fill:url(#g)}
    .round{stroke-linecap:round;stroke-linejoin:round}
    .nofill{fill:none}
  </style>
</defs>



    <g transform="translate(128 128)">
      <circle cx="128" cy="128" r="96" class="nofill s1 round" stroke-width="10" stroke-dasharray="418 124"/>
      <circle cx="128" cy="128" r="74" class="nofill s2 round" stroke-width="7" stroke-dasharray="2 18" opacity="0.62"/>
      <circle cx="128" cy="20" r="12" class="nofill s1" stroke-width="7"/>
      <circle cx="236" cy="128" r="12" class="nofill s1" stroke-width="7"/>
      <circle cx="128" cy="236" r="12" class="nofill s1" stroke-width="7"/>
      <circle cx="20" cy="128" r="12" class="nofill s1" stroke-width="7"/>
      
      <path d="M128 86 V72" class="nofill s1 round" stroke-width="7"/>
      <path d="M128 88 L168 108 V134 C168 158 151 178 128 192 C105 178 88 158 88 134 V108 Z" class="nofill s0 round" stroke-width="8"/>
      <path d="M116 135 L126 145 L144 126" class="nofill s1 round" stroke-width="8"/>
      <path d="M90 196 C103 181 115 174 128 174 C141 174 153 181 166 196" class="nofill s0 round" stroke-width="7"/>
      <circle cx="96" cy="198" r="8" class="nofill s1" stroke-width="7"/>
      <circle cx="128" cy="198" r="8" class="nofill s1" stroke-width="7"/>
      <circle cx="160" cy="198" r="8" class="nofill s1" stroke-width="7"/>
    
    </g>
    
</svg>