<svg width="432" height="456" viewBox="0 0 432 456" fill="none" xmlns="http://www.w3.org/2000/svg">
<g clip-path="url(#paint0_angular_1338_46_clip_path)" data-figma-skip-parse="true"><g transform="matrix(0 0.204012 -0.193772 0 193.772 204.012)"><foreignObject x="-1239.38" y="-1239.38" width="2478.76" height="2478.76"><div xmlns="http://www.w3.org/1999/xhtml" style="background:conic-gradient(from 90deg,rgba(61, 150, 255, 1) 0deg,rgba(0, 212, 255, 1) 45.069deg,rgba(120, 97, 255, 1) 70.9615deg,rgba(76, 136, 255, 1) 348.931deg,rgba(61, 150, 255, 1) 360deg);height:100%;width:100%;opacity:1"></div></foreignObject></g></g><path d="M204.21 111.007L284.323 275.675C290.442 283.499 293.592 284.909 301.269 284.909H387.545C387.545 284.909 275.079 61.8346 253.51 24.8992C231.941 -12.0361 172.062 -4.34113 156.45 24.8992C140.839 54.1396 17.7933 277.214 3.92824 318.766C-9.93685 360.317 12.4813 399.748 77.8784 408.025C71.1284 404.074 60.5126 384.656 65.4491 375.707L94.3063 326.034L204.21 111.007Z" data-figma-gradient-fill="{&#34;type&#34;:&#34;GRADIENT_ANGULAR&#34;,&#34;stops&#34;:[{&#34;color&#34;:{&#34;r&#34;:0.0,&#34;g&#34;:0.83137255907058716,&#34;b&#34;:1.0,&#34;a&#34;:1.0},&#34;position&#34;:0.12519158422946930},{&#34;color&#34;:{&#34;r&#34;:0.47058823704719543,&#34;g&#34;:0.38039216399192810,&#34;b&#34;:1.0,&#34;a&#34;:1.0},&#34;position&#34;:0.19711539149284363},{&#34;color&#34;:{&#34;r&#34;:0.29803922772407532,&#34;g&#34;:0.53333336114883423,&#34;b&#34;:1.0,&#34;a&#34;:1.0},&#34;position&#34;:0.96925187110900879}],&#34;stopsVar&#34;:[{&#34;color&#34;:{&#34;r&#34;:0.0,&#34;g&#34;:0.83137255907058716,&#34;b&#34;:1.0,&#34;a&#34;:1.0},&#34;position&#34;:0.12519158422946930},{&#34;color&#34;:{&#34;r&#34;:0.47058823704719543,&#34;g&#34;:0.38039216399192810,&#34;b&#34;:1.0,&#34;a&#34;:1.0},&#34;position&#34;:0.19711539149284363},{&#34;color&#34;:{&#34;r&#34;:0.29803922772407532,&#34;g&#34;:0.53333336114883423,&#34;b&#34;:1.0,&#34;a&#34;:1.0},&#34;position&#34;:0.96925187110900879}],&#34;transform&#34;:{&#34;m00&#34;:2.3730264986105559e-14,&#34;m01&#34;:-387.54458618164062,&#34;m02&#34;:387.54458618164062,&#34;m10&#34;:408.02462768554688,&#34;m11&#34;:2.4984304040779129e-14,&#34;m12&#34;:1.0669004217380578e-21},&#34;opacity&#34;:1.0,&#34;blendMode&#34;:&#34;NORMAL&#34;,&#34;visible&#34;:true}"/>
<g clip-path="url(#paint1_angular_1338_46_clip_path)" data-figma-skip-parse="true"><g transform="matrix(0 0.204012 -0.193772 0 193.772 204.012)"><foreignObject x="-1239.38" y="-1239.38" width="2478.76" height="2478.76"><div xmlns="http://www.w3.org/1999/xhtml" style="background:conic-gradient(from 90deg,rgba(61, 150, 255, 1) 0deg,rgba(0, 212, 255, 1) 45.069deg,rgba(120, 97, 255, 1) 70.9615deg,rgba(76, 136, 255, 1) 348.931deg,rgba(61, 150, 255, 1) 360deg);height:100%;width:100%;opacity:1"></div></foreignObject></g></g><path d="M77.8784 408.025C77.8784 408.025 145.665 375.707 176.479 360.317C207.292 344.927 251.969 380.324 251.969 380.324C251.969 380.324 230.903 314.148 221.157 298.759C211.41 283.37 194.965 283.37 178.019 287.987C161.073 292.603 94.3063 326.034 94.3063 326.034L65.4491 375.707C60.5126 384.656 71.1284 404.074 77.8784 408.025Z" data-figma-gradient-fill="{&#34;type&#34;:&#34;GRADIENT_ANGULAR&#34;,&#34;stops&#34;:[{&#34;color&#34;:{&#34;r&#34;:0.0,&#34;g&#34;:0.83137255907058716,&#34;b&#34;:1.0,&#34;a&#34;:1.0},&#34;position&#34;:0.12519158422946930},{&#34;color&#34;:{&#34;r&#34;:0.47058823704719543,&#34;g&#34;:0.38039216399192810,&#34;b&#34;:1.0,&#34;a&#34;:1.0},&#34;position&#34;:0.19711539149284363},{&#34;color&#34;:{&#34;r&#34;:0.29803922772407532,&#34;g&#34;:0.53333336114883423,&#34;b&#34;:1.0,&#34;a&#34;:1.0},&#34;position&#34;:0.96925187110900879}],&#34;stopsVar&#34;:[{&#34;color&#34;:{&#34;r&#34;:0.0,&#34;g&#34;:0.83137255907058716,&#34;b&#34;:1.0,&#34;a&#34;:1.0},&#34;position&#34;:0.12519158422946930},{&#34;color&#34;:{&#34;r&#34;:0.47058823704719543,&#34;g&#34;:0.38039216399192810,&#34;b&#34;:1.0,&#34;a&#34;:1.0},&#34;position&#34;:0.19711539149284363},{&#34;color&#34;:{&#34;r&#34;:0.29803922772407532,&#34;g&#34;:0.53333336114883423,&#34;b&#34;:1.0,&#34;a&#34;:1.0},&#34;position&#34;:0.96925187110900879}],&#34;transform&#34;:{&#34;m00&#34;:2.3730264986105559e-14,&#34;m01&#34;:-387.54458618164062,&#34;m02&#34;:387.54458618164062,&#34;m10&#34;:408.02462768554688,&#34;m11&#34;:2.4984304040779129e-14,&#34;m12&#34;:1.0669004217380578e-21},&#34;opacity&#34;:1.0,&#34;blendMode&#34;:&#34;NORMAL&#34;,&#34;visible&#34;:true}"/>
<g clip-path="url(#paint2_angular_1338_46_clip_path)" data-figma-skip-parse="true"><g transform="matrix(0 0.204012 -0.193772 0 193.772 204.012)"><foreignObject x="-1239.38" y="-1239.38" width="2478.76" height="2478.76"><div xmlns="http://www.w3.org/1999/xhtml" style="background:conic-gradient(from 90deg,rgba(61, 150, 255, 1) 0deg,rgba(0, 212, 255, 1) 45.069deg,rgba(120, 97, 255, 1) 70.9615deg,rgba(76, 136, 255, 1) 348.931deg,rgba(61, 150, 255, 1) 360deg);height:100%;width:100%;opacity:1"></div></foreignObject></g></g><path d="M431.655 398.572C431.655 429.895 406.264 455.286 374.942 455.286C343.619 455.286 318.228 429.895 318.228 398.572C318.228 367.25 343.619 341.858 374.942 341.858C406.264 341.858 431.655 367.25 431.655 398.572Z" data-figma-gradient-fill="{&#34;type&#34;:&#34;GRADIENT_ANGULAR&#34;,&#34;stops&#34;:[{&#34;color&#34;:{&#34;r&#34;:0.0,&#34;g&#34;:0.83137255907058716,&#34;b&#34;:1.0,&#34;a&#34;:1.0},&#34;position&#34;:0.12519158422946930},{&#34;color&#34;:{&#34;r&#34;:0.47058823704719543,&#34;g&#34;:0.38039216399192810,&#34;b&#34;:1.0,&#34;a&#34;:1.0},&#34;position&#34;:0.19711539149284363},{&#34;color&#34;:{&#34;r&#34;:0.29803922772407532,&#34;g&#34;:0.53333336114883423,&#34;b&#34;:1.0,&#34;a&#34;:1.0},&#34;position&#34;:0.96925187110900879}],&#34;stopsVar&#34;:[{&#34;color&#34;:{&#34;r&#34;:0.0,&#34;g&#34;:0.83137255907058716,&#34;b&#34;:1.0,&#34;a&#34;:1.0},&#34;position&#34;:0.12519158422946930},{&#34;color&#34;:{&#34;r&#34;:0.47058823704719543,&#34;g&#34;:0.38039216399192810,&#34;b&#34;:1.0,&#34;a&#34;:1.0},&#34;position&#34;:0.19711539149284363},{&#34;color&#34;:{&#34;r&#34;:0.29803922772407532,&#34;g&#34;:0.53333336114883423,&#34;b&#34;:1.0,&#34;a&#34;:1.0},&#34;position&#34;:0.96925187110900879}],&#34;transform&#34;:{&#34;m00&#34;:2.3730264986105559e-14,&#34;m01&#34;:-387.54458618164062,&#34;m02&#34;:387.54458618164062,&#34;m10&#34;:408.02462768554688,&#34;m11&#34;:2.4984304040779129e-14,&#34;m12&#34;:1.0669004217380578e-21},&#34;opacity&#34;:1.0,&#34;blendMode&#34;:&#34;NORMAL&#34;,&#34;visible&#34;:true}"/>
<defs>
<clipPath id="paint0_angular_1338_46_clip_path"><path d="M204.21 111.007L284.323 275.675C290.442 283.499 293.592 284.909 301.269 284.909H387.545C387.545 284.909 275.079 61.8346 253.51 24.8992C231.941 -12.0361 172.062 -4.34113 156.45 24.8992C140.839 54.1396 17.7933 277.214 3.92824 318.766C-9.93685 360.317 12.4813 399.748 77.8784 408.025C71.1284 404.074 60.5126 384.656 65.4491 375.707L94.3063 326.034L204.21 111.007Z"/></clipPath><clipPath id="paint1_angular_1338_46_clip_path"><path d="M77.8784 408.025C77.8784 408.025 145.665 375.707 176.479 360.317C207.292 344.927 251.969 380.324 251.969 380.324C251.969 380.324 230.903 314.148 221.157 298.759C211.41 283.37 194.965 283.37 178.019 287.987C161.073 292.603 94.3063 326.034 94.3063 326.034L65.4491 375.707C60.5126 384.656 71.1284 404.074 77.8784 408.025Z"/></clipPath><clipPath id="paint2_angular_1338_46_clip_path"><path d="M431.655 398.572C431.655 429.895 406.264 455.286 374.942 455.286C343.619 455.286 318.228 429.895 318.228 398.572C318.228 367.25 343.619 341.858 374.942 341.858C406.264 341.858 431.655 367.25 431.655 398.572Z"/></clipPath></defs>
</svg>
