<svg width="13380" height="4984" viewBox="0 0 13380 4984" fill="none" xmlns="http://www.w3.org/2000/svg">
<g clip-path="url(#paint0_angular_1312_960_clip_path)" data-figma-skip-parse="true"><g transform="matrix(0 2.23305 -2.12097 0 2120.97 2233.05)"><foreignObject x="-5316.3" y="-5316.3" width="10632.6" height="10632.6"><div xmlns="http://www.w3.org/1999/xhtml" style="background:conic-gradient(from 90deg,rgba(61, 150, 255, 1) 0deg,rgba(0, 212, 255, 1) 45.069deg,rgba(120, 97, 255, 1) 70.9615deg,rgba(76, 136, 255, 1) 348.931deg,rgba(61, 150, 255, 1) 360deg);height:100%;width:100%;opacity:1"></div></foreignObject></g></g><path d="M2235.22 1215.05L3112.1 3017.45C3179.08 3103.09 3213.57 3118.52 3297.6 3118.52H4241.94C4241.94 3118.52 3010.92 676.822 2774.84 272.539C2538.75 -131.744 1883.34 -47.5166 1712.46 272.539C1541.57 592.594 194.76 3034.3 42.9973 3489.11C-108.766 3943.92 136.616 4375.51 852.432 4466.11C778.549 4422.86 662.351 4210.32 716.385 4112.36L1032.25 3568.66L2235.22 1215.05Z" data-figma-gradient-fill="{&#34;type&#34;:&#34;GRADIENT_ANGULAR&#34;,&#34;stops&#34;:[{&#34;color&#34;:{&#34;r&#34;:0.0,&#34;g&#34;:0.83137255907058716,&#34;b&#34;:1.0,&#34;a&#34;:1.0},&#34;position&#34;:0.12519158422946930},{&#34;color&#34;:{&#34;r&#34;:0.47058823704719543,&#34;g&#34;:0.38039216399192810,&#34;b&#34;:1.0,&#34;a&#34;:1.0},&#34;position&#34;:0.19711539149284363},{&#34;color&#34;:{&#34;r&#34;:0.29803922772407532,&#34;g&#34;:0.53333336114883423,&#34;b&#34;:1.0,&#34;a&#34;:1.0},&#34;position&#34;:0.96925187110900879}],&#34;stopsVar&#34;:[{&#34;color&#34;:{&#34;r&#34;:0.0,&#34;g&#34;:0.83137255907058716,&#34;b&#34;:1.0,&#34;a&#34;:1.0},&#34;position&#34;:0.12519158422946930},{&#34;color&#34;:{&#34;r&#34;:0.47058823704719543,&#34;g&#34;:0.38039216399192810,&#34;b&#34;:1.0,&#34;a&#34;:1.0},&#34;position&#34;:0.19711539149284363},{&#34;color&#34;:{&#34;r&#34;:0.29803922772407532,&#34;g&#34;:0.53333336114883423,&#34;b&#34;:1.0,&#34;a&#34;:1.0},&#34;position&#34;:0.96925187110900879}],&#34;transform&#34;:{&#34;m00&#34;:2.5974380524033946e-13,&#34;m01&#34;:-4241.937988281250,&#34;m02&#34;:4241.937988281250,&#34;m10&#34;:4466.105957031250,&#34;m11&#34;:2.7347010289960338e-13,&#34;m12&#34;:4.9144064388707645e-21},&#34;opacity&#34;:1.0,&#34;blendMode&#34;:&#34;NORMAL&#34;,&#34;visible&#34;:true}"/>
<g clip-path="url(#paint1_angular_1312_960_clip_path)" data-figma-skip-parse="true"><g transform="matrix(0 2.23305 -2.12097 0 2120.97 2233.05)"><foreignObject x="-5316.3" y="-5316.3" width="10632.6" height="10632.6"><div xmlns="http://www.w3.org/1999/xhtml" style="background:conic-gradient(from 90deg,rgba(61, 150, 255, 1) 0deg,rgba(0, 212, 255, 1) 45.069deg,rgba(120, 97, 255, 1) 70.9615deg,rgba(76, 136, 255, 1) 348.931deg,rgba(61, 150, 255, 1) 360deg);height:100%;width:100%;opacity:1"></div></foreignObject></g></g><path d="M852.432 4466.11C852.432 4466.11 1594.4 4112.37 1931.68 3943.92C2268.95 3775.46 2757.97 4162.9 2757.97 4162.9C2757.97 4162.9 2527.39 3438.56 2420.71 3270.12C2314.03 3101.68 2134.03 3101.68 1948.54 3152.21C1763.05 3202.74 1032.25 3568.66 1032.25 3568.66L716.385 4112.36C662.351 4210.32 778.549 4422.86 852.432 4466.11Z" data-figma-gradient-fill="{&#34;type&#34;:&#34;GRADIENT_ANGULAR&#34;,&#34;stops&#34;:[{&#34;color&#34;:{&#34;r&#34;:0.0,&#34;g&#34;:0.83137255907058716,&#34;b&#34;:1.0,&#34;a&#34;:1.0},&#34;position&#34;:0.12519158422946930},{&#34;color&#34;:{&#34;r&#34;:0.47058823704719543,&#34;g&#34;:0.38039216399192810,&#34;b&#34;:1.0,&#34;a&#34;:1.0},&#34;position&#34;:0.19711539149284363},{&#34;color&#34;:{&#34;r&#34;:0.29803922772407532,&#34;g&#34;:0.53333336114883423,&#34;b&#34;:1.0,&#34;a&#34;:1.0},&#34;position&#34;:0.96925187110900879}],&#34;stopsVar&#34;:[{&#34;color&#34;:{&#34;r&#34;:0.0,&#34;g&#34;:0.83137255907058716,&#34;b&#34;:1.0,&#34;a&#34;:1.0},&#34;position&#34;:0.12519158422946930},{&#34;color&#34;:{&#34;r&#34;:0.47058823704719543,&#34;g&#34;:0.38039216399192810,&#34;b&#34;:1.0,&#34;a&#34;:1.0},&#34;position&#34;:0.19711539149284363},{&#34;color&#34;:{&#34;r&#34;:0.29803922772407532,&#34;g&#34;:0.53333336114883423,&#34;b&#34;:1.0,&#34;a&#34;:1.0},&#34;position&#34;:0.96925187110900879}],&#34;transform&#34;:{&#34;m00&#34;:2.5974380524033946e-13,&#34;m01&#34;:-4241.937988281250,&#34;m02&#34;:4241.937988281250,&#34;m10&#34;:4466.105957031250,&#34;m11&#34;:2.7347010289960338e-13,&#34;m12&#34;:4.9144064388707645e-21},&#34;opacity&#34;:1.0,&#34;blendMode&#34;:&#34;NORMAL&#34;,&#34;visible&#34;:true}"/>
<g clip-path="url(#paint2_angular_1312_960_clip_path)" data-figma-skip-parse="true"><g transform="matrix(0 2.23305 -2.12097 0 2120.97 2233.05)"><foreignObject x="-5316.3" y="-5316.3" width="10632.6" height="10632.6"><div xmlns="http://www.w3.org/1999/xhtml" style="background:conic-gradient(from 90deg,rgba(61, 150, 255, 1) 0deg,rgba(0, 212, 255, 1) 45.069deg,rgba(120, 97, 255, 1) 70.9615deg,rgba(76, 136, 255, 1) 348.931deg,rgba(61, 150, 255, 1) 360deg);height:100%;width:100%;opacity:1"></div></foreignObject></g></g><path d="M4724.76 4362.64C4724.76 4705.49 4446.83 4983.41 4103.99 4983.41C3761.15 4983.41 3483.22 4705.49 3483.22 4362.64C3483.22 4019.8 3761.15 3741.87 4103.99 3741.87C4446.83 3741.87 4724.76 4019.8 4724.76 4362.64Z" data-figma-gradient-fill="{&#34;type&#34;:&#34;GRADIENT_ANGULAR&#34;,&#34;stops&#34;:[{&#34;color&#34;:{&#34;r&#34;:0.0,&#34;g&#34;:0.83137255907058716,&#34;b&#34;:1.0,&#34;a&#34;:1.0},&#34;position&#34;:0.12519158422946930},{&#34;color&#34;:{&#34;r&#34;:0.47058823704719543,&#34;g&#34;:0.38039216399192810,&#34;b&#34;:1.0,&#34;a&#34;:1.0},&#34;position&#34;:0.19711539149284363},{&#34;color&#34;:{&#34;r&#34;:0.29803922772407532,&#34;g&#34;:0.53333336114883423,&#34;b&#34;:1.0,&#34;a&#34;:1.0},&#34;position&#34;:0.96925187110900879}],&#34;stopsVar&#34;:[{&#34;color&#34;:{&#34;r&#34;:0.0,&#34;g&#34;:0.83137255907058716,&#34;b&#34;:1.0,&#34;a&#34;:1.0},&#34;position&#34;:0.12519158422946930},{&#34;color&#34;:{&#34;r&#34;:0.47058823704719543,&#34;g&#34;:0.38039216399192810,&#34;b&#34;:1.0,&#34;a&#34;:1.0},&#34;position&#34;:0.19711539149284363},{&#34;color&#34;:{&#34;r&#34;:0.29803922772407532,&#34;g&#34;:0.53333336114883423,&#34;b&#34;:1.0,&#34;a&#34;:1.0},&#34;position&#34;:0.96925187110900879}],&#34;transform&#34;:{&#34;m00&#34;:2.5974380524033946e-13,&#34;m01&#34;:-4241.937988281250,&#34;m02&#34;:4241.937988281250,&#34;m10&#34;:4466.105957031250,&#34;m11&#34;:2.7347010289960338e-13,&#34;m12&#34;:4.9144064388707645e-21},&#34;opacity&#34;:1.0,&#34;blendMode&#34;:&#34;NORMAL&#34;,&#34;visible&#34;:true}"/>
<path d="M5067.39 3095.24L5599.42 1610.5H5871.62L5382.9 3095.24H5067.39ZM6156.2 3095.24L5669.53 1610.5H5954.11L6486.14 3095.24H6156.2ZM5347.84 2519.9H6180.94V2767.36H5347.84V2519.9Z" fill="black"/>
<path d="M6639.41 3095.24V2043.55H6942.54V2291.01H6948.73V3095.24H6639.41ZM7346.72 3095.24V2427.11C7346.72 2373.49 7332.28 2334.31 7303.42 2309.56C7275.92 2283.44 7236.74 2270.38 7185.87 2270.38C7141.88 2270.38 7101.33 2280.69 7064.21 2301.32C7028.46 2320.56 7000.28 2348.75 6979.66 2385.86C6959.04 2421.61 6948.73 2464.22 6948.73 2513.72L6921.92 2276.57C6956.29 2199.58 7005.78 2138.41 7070.39 2093.04C7136.38 2046.3 7215.43 2022.93 7307.54 2022.93C7417.52 2022.93 7502.75 2053.86 7563.24 2115.72C7625.11 2177.59 7656.04 2255.26 7656.04 2348.75V3095.24H7346.72ZM8054.03 3095.24V2427.11C8054.03 2373.49 8039.59 2334.31 8010.72 2309.56C7983.23 2283.44 7944.05 2270.38 7893.18 2270.38C7849.19 2270.38 7808.64 2280.69 7771.52 2301.32C7735.77 2320.56 7707.59 2348.75 7686.97 2385.86C7666.35 2421.61 7656.04 2464.22 7656.04 2513.72L7608.61 2276.57C7642.98 2199.58 7693.84 2138.41 7761.21 2093.04C7829.94 2046.3 7912.43 2022.93 8008.66 2022.93C8122.77 2022.93 8210.06 2055.24 8270.55 2119.85C8332.42 2183.09 8363.35 2266.26 8363.35 2369.37V3095.24H8054.03Z" fill="black"/>
<path d="M9219.53 3115.86C9119.18 3115.86 9037.38 3092.49 8974.14 3045.74C8912.28 2999 8875.85 2935.08 8864.85 2853.97L8881.35 2851.9V3095.24H8578.21V1610.5H8887.53V2276.57L8868.97 2272.45C8884.09 2195.46 8923.96 2134.97 8988.58 2090.98C9054.56 2045.61 9137.05 2022.93 9236.03 2022.93C9330.89 2022.93 9412.69 2045.61 9481.42 2090.98C9551.54 2134.97 9605.15 2197.52 9642.27 2278.63C9680.76 2359.74 9700.01 2455.29 9700.01 2565.27C9700.01 2676.62 9680.08 2773.54 9640.21 2856.03C9600.34 2938.51 9544.66 3002.44 9473.18 3047.81C9401.69 3093.17 9317.14 3115.86 9219.53 3115.86ZM9132.93 2868.4C9205.79 2868.4 9264.9 2842.28 9310.27 2790.04C9355.63 2737.8 9378.32 2663.56 9378.32 2567.33C9378.32 2471.1 9354.95 2397.55 9308.21 2346.68C9262.84 2295.82 9203.04 2270.38 9128.8 2270.38C9057.31 2270.38 8998.2 2296.5 8951.46 2348.75C8906.09 2399.61 8883.41 2473.16 8883.41 2569.39C8883.41 2665.63 8906.09 2739.86 8951.46 2792.1C8998.2 2842.97 9058.69 2868.4 9132.93 2868.4Z" fill="black"/>
<path d="M9844.41 3095.24V2043.55H10153.7V3095.24H9844.41ZM9834.1 1903.33V1569.26H10164V1903.33H9834.1Z" fill="black"/>
<path d="M10862.5 3117.92C10727.8 3117.92 10627.4 3085.61 10561.4 3021C10496.8 2955.01 10464.5 2855.34 10464.5 2721.99V1808.47L10773.8 1692.99V2732.3C10773.8 2779.04 10786.9 2814.1 10813 2837.47C10839.1 2860.84 10879.7 2872.53 10934.7 2872.53C10955.3 2872.53 10974.6 2870.46 10992.4 2866.34C11010.3 2862.21 11028.2 2857.4 11046 2851.9V3086.99C11028.2 3096.61 11002.7 3104.17 10969.7 3109.67C10938.1 3115.17 10902.4 3117.92 10862.5 3117.92ZM10268.6 2278.63V2043.55H11046V2278.63H10268.6Z" fill="black"/>
<path d="M11669.5 3115.86C11552.6 3115.86 11450.9 3093.17 11364.3 3047.81C11277.7 3001.06 11210.3 2936.45 11162.2 2853.97C11115.4 2771.48 11092.1 2676.62 11092.1 2569.39C11092.1 2460.79 11115.4 2365.93 11162.2 2284.82C11210.3 2202.33 11277 2138.41 11362.2 2093.04C11447.4 2046.3 11546.4 2022.93 11659.2 2022.93C11767.8 2022.93 11861.9 2044.92 11941.7 2088.92C12021.4 2132.91 12083.3 2194.09 12127.3 2272.45C12171.3 2350.81 12193.2 2442.92 12193.2 2548.77C12193.2 2570.77 12192.6 2591.39 12191.2 2610.64C12189.8 2628.51 12187.8 2645.69 12185 2662.19H11273.5V2458.04H11935.5L11881.9 2495.16C11881.9 2409.92 11861.2 2347.37 11820 2307.5C11780.1 2266.26 11725.1 2245.64 11655 2245.64C11573.9 2245.64 11510.7 2273.13 11465.3 2328.12C11421.3 2383.11 11399.3 2465.6 11399.3 2575.58C11399.3 2682.81 11421.3 2762.55 11465.3 2814.79C11510.7 2867.03 11578 2893.15 11667.4 2893.15C11716.9 2893.15 11759.5 2884.9 11795.3 2868.4C11831 2851.9 11857.8 2825.1 11875.7 2787.98H12166.4C12132.1 2889.71 12073 2970.13 11989.1 3029.25C11906.6 3086.99 11800.1 3115.86 11669.5 3115.86Z" fill="black"/>
<path d="M12338 3095.24V2043.55H12641.2V2291.01H12647.4V3095.24H12338ZM13070.1 3095.24V2443.6C13070.1 2385.86 13055 2342.56 13024.7 2313.69C12995.9 2284.82 12953.3 2270.38 12896.9 2270.38C12848.8 2270.38 12805.5 2281.38 12767 2303.38C12729.9 2325.37 12700.3 2355.62 12678.3 2394.11C12657.7 2432.61 12647.4 2477.97 12647.4 2530.21L12620.6 2276.57C12654.9 2199.58 12705.1 2138.41 12771.1 2093.04C12838.5 2046.3 12920.9 2022.93 13018.6 2022.93C13135.4 2022.93 13224.8 2055.92 13286.6 2121.91C13348.5 2186.52 13379.4 2273.82 13379.4 2383.8V3095.24H13070.1Z" fill="black"/>
<path d="M5382.88 3772.22C5359.57 3772.22 5338.05 3768.19 5318.32 3760.12C5298.59 3751.75 5281.41 3740.09 5266.76 3725.15C5252.42 3710.2 5241.21 3692.57 5233.14 3672.24C5225.07 3651.62 5221.03 3629.2 5221.03 3604.99C5221.03 3580.78 5224.92 3558.66 5232.69 3538.64C5240.76 3518.61 5251.97 3501.28 5266.31 3486.63C5280.96 3471.69 5298.15 3460.33 5317.87 3452.56C5337.6 3444.49 5359.27 3440.45 5382.88 3440.45C5409.48 3440.45 5433.39 3445.68 5454.61 3456.14C5476.13 3466.31 5493.62 3480.8 5507.07 3499.63C5520.82 3518.16 5529.19 3539.98 5532.18 3565.09H5464.93C5461.04 3542.08 5451.63 3524.74 5436.68 3513.08C5421.74 3501.13 5403.95 3495.15 5383.33 3495.15C5365.1 3495.15 5348.96 3499.48 5334.91 3508.15C5321.16 3516.82 5310.4 3529.37 5302.63 3545.81C5294.86 3561.95 5290.97 3581.53 5290.97 3604.54C5290.97 3627.86 5294.86 3648.03 5302.63 3665.07C5310.7 3681.81 5321.76 3694.81 5335.81 3704.07C5349.85 3713.04 5365.99 3717.52 5384.23 3717.52C5403.65 3717.52 5420.84 3711.7 5435.78 3700.04C5450.73 3688.38 5460.44 3671.05 5464.93 3648.03H5533.07C5529.19 3673.14 5520.37 3695.11 5506.62 3713.94C5492.87 3732.47 5475.39 3746.82 5454.17 3756.98C5432.94 3767.14 5409.18 3772.22 5382.88 3772.22Z" fill="#7861FF"/>
<path d="M5718.24 3772.22C5694.32 3772.22 5672.21 3768.19 5651.88 3760.12C5631.86 3752.05 5614.37 3740.69 5599.43 3726.04C5584.78 3711.1 5573.27 3693.46 5564.9 3673.14C5556.83 3652.52 5552.8 3629.8 5552.8 3604.99C5552.8 3572.11 5559.82 3543.42 5573.87 3518.91C5587.92 3494.1 5607.35 3474.83 5632.16 3461.08C5657.26 3447.33 5685.81 3440.45 5717.79 3440.45C5750.37 3440.45 5779.06 3447.33 5803.87 3461.08C5828.67 3474.83 5848.1 3494.1 5862.15 3518.91C5876.5 3543.72 5883.67 3572.56 5883.67 3605.44C5883.67 3629.95 5879.49 3652.52 5871.12 3673.14C5863.05 3693.46 5851.54 3711.1 5836.6 3726.04C5821.95 3740.69 5804.47 3752.05 5784.14 3760.12C5764.11 3768.19 5742.15 3772.22 5718.24 3772.22ZM5717.79 3717.52C5736.62 3717.52 5753.21 3712.74 5767.55 3703.18C5781.9 3693.61 5793.11 3680.46 5801.18 3663.72C5809.55 3646.69 5813.73 3626.96 5813.73 3604.54C5813.73 3582.43 5809.7 3563.15 5801.63 3546.71C5793.56 3530.27 5782.35 3517.57 5768 3508.6C5753.65 3499.63 5736.92 3495.15 5717.79 3495.15C5698.96 3495.15 5682.37 3499.63 5668.02 3508.6C5653.67 3517.57 5642.47 3530.27 5634.4 3546.71C5626.63 3562.85 5622.74 3582.13 5622.74 3604.54C5622.74 3627.26 5626.78 3647.14 5634.85 3664.17C5642.92 3680.91 5654.12 3694.06 5668.47 3703.63C5682.82 3712.89 5699.26 3717.52 5717.79 3717.52Z" fill="#7861FF"/>
<path d="M5914.99 3767.74V3444.94H6004.21L6147.67 3730.08L6125.71 3735.46V3444.94H6192.96V3767.74H6103.74L5960.27 3482.6L5982.24 3477.22V3767.74H5914.99Z" fill="#7861FF"/>
<path d="M6326.89 3767.74V3497.84H6221.53V3444.94H6501.29V3497.84H6395.93V3767.74H6326.89Z" fill="#7861FF"/>
<path d="M6529.92 3767.74V3444.94H6598.97V3767.74H6529.92ZM6562.2 3767.74V3714.83H6770.23V3767.74H6562.2ZM6562.2 3628.75V3576.75H6754.54V3628.75H6562.2ZM6562.2 3497.84V3444.94H6764.85V3497.84H6562.2Z" fill="#7861FF"/>
<path d="M7012.82 3767.74L6923.6 3626.51L6798.97 3444.94H6879.67L6963.51 3578.09L7093.52 3767.74H7012.82ZM6933.47 3577.64L7020.44 3444.94H7093.52L6956.33 3635.48L6933.47 3577.64ZM6949.16 3637.27L6863.53 3767.74H6790.45L6926.29 3579.44L6949.16 3637.27Z" fill="#7861FF"/>
<path d="M7214.05 3767.74V3497.84H7108.69V3444.94H7388.45V3497.84H7283.09V3767.74H7214.05Z" fill="#7861FF"/>
<path d="M7776.89 3612.54C7776.89 3650.64 7746 3681.52 7707.91 3681.52C7669.82 3681.52 7638.94 3650.64 7638.94 3612.54C7638.94 3574.45 7669.82 3543.57 7707.91 3543.57C7746 3543.57 7776.89 3574.45 7776.89 3612.54Z" fill="black"/>
<path d="M8117.17 3767.74V3497.84H8011.81V3444.94H8291.57V3497.84H8186.22V3767.74H8117.17Z" fill="#7861FF"/>
<path d="M8320.21 3767.74V3444.94H8389.25V3767.74H8320.21ZM8352.49 3767.74V3714.83H8560.52V3767.74H8352.49ZM8352.49 3628.75V3576.75H8544.83V3628.75H8352.49ZM8352.49 3497.84V3444.94H8555.14V3497.84H8352.49Z" fill="#7861FF"/>
<path d="M8596.38 3767.74V3444.94H8685.59L8829.06 3730.08L8807.09 3735.46V3444.94H8874.34V3767.74H8785.12L8641.66 3482.6L8663.63 3477.22V3767.74H8596.38Z" fill="#7861FF"/>
<path d="M8902.91 3767.74L9018.58 3444.94H9077.76L8971.51 3767.74H8902.91ZM9139.63 3767.74L9033.83 3444.94H9095.7L9211.37 3767.74H9139.63ZM8963.89 3642.65H9145.01V3696.45H8963.89V3642.65Z" fill="#7861FF"/>
<path d="M9240.21 3767.74V3444.94H9329.43L9472.89 3730.08L9450.93 3735.46V3444.94H9518.18V3767.74H9428.96L9285.49 3482.6L9307.46 3477.22V3767.74H9240.21Z" fill="#7861FF"/>
<path d="M9711.29 3772.22C9687.97 3772.22 9666.45 3768.19 9646.73 3760.12C9627 3751.75 9609.81 3740.09 9595.17 3725.15C9580.82 3710.2 9569.61 3692.57 9561.54 3672.24C9553.47 3651.62 9549.44 3629.2 9549.44 3604.99C9549.44 3580.78 9553.32 3558.66 9561.09 3538.64C9569.16 3518.61 9580.37 3501.28 9594.72 3486.63C9609.36 3471.69 9626.55 3460.33 9646.28 3452.56C9666 3444.49 9687.67 3440.45 9711.29 3440.45C9737.89 3440.45 9761.8 3445.68 9783.02 3456.14C9804.54 3466.31 9822.02 3480.8 9835.47 3499.63C9849.22 3518.16 9857.59 3539.98 9860.58 3565.09H9793.33C9789.45 3542.08 9780.03 3524.74 9765.09 3513.08C9750.14 3501.13 9732.36 3495.15 9711.73 3495.15C9693.5 3495.15 9677.36 3499.48 9663.31 3508.15C9649.56 3516.82 9638.8 3529.37 9631.03 3545.81C9623.26 3561.95 9619.38 3581.53 9619.38 3604.54C9619.38 3627.86 9623.26 3648.03 9631.03 3665.07C9639.1 3681.81 9650.16 3694.81 9664.21 3704.07C9678.26 3713.04 9694.4 3717.52 9712.63 3717.52C9732.06 3717.52 9749.25 3711.7 9764.19 3700.04C9779.13 3688.38 9788.85 3671.05 9793.33 3648.03H9861.48C9857.59 3673.14 9848.78 3695.11 9835.03 3713.94C9821.28 3732.47 9803.79 3746.82 9782.57 3756.98C9761.35 3767.14 9737.59 3772.22 9711.29 3772.22Z" fill="#7861FF"/>
<path d="M9968.32 3767.74V3637.27L9848.17 3444.94H9931.11L10026.2 3615.75H9987.15L10081.8 3444.94H10157.5L10037.4 3637.27V3767.74H9968.32Z" fill="#7861FF"/>
<path d="M10535.9 3612.54C10535.9 3650.64 10505 3681.52 10466.9 3681.52C10428.8 3681.52 10397.9 3650.64 10397.9 3612.54C10397.9 3574.45 10428.8 3543.57 10466.9 3543.57C10505 3543.57 10535.9 3574.45 10535.9 3612.54Z" fill="black"/>
<path d="M10782.5 3767.74V3444.94H10851.5V3767.74H10782.5ZM10814.7 3767.74V3714.83H11022.8V3767.74H10814.7ZM10814.7 3628.75V3576.75H11007.1V3628.75H10814.7ZM10814.7 3497.84V3444.94H11017.4V3497.84H10814.7Z" fill="#4C88FF"/>
<path d="M11265.4 3767.74L11176.1 3626.51L11051.5 3444.94H11132.2L11216 3578.09L11346.1 3767.74H11265.4ZM11186 3577.64L11273 3444.94H11346.1L11208.9 3635.48L11186 3577.64ZM11201.7 3637.27L11116.1 3767.74H11043L11178.8 3579.44L11201.7 3637.27Z" fill="#4C88FF"/>
<path d="M11372.9 3767.74V3444.94H11441.9V3767.74H11372.9ZM11405.2 3767.74V3714.83H11613.2V3767.74H11405.2ZM11405.2 3628.75V3576.75H11597.5V3628.75H11405.2ZM11405.2 3497.84V3444.94H11607.8V3497.84H11405.2Z" fill="#4C88FF"/>
<path d="M11789.7 3772.22C11766.3 3772.22 11744.8 3768.19 11725.1 3760.12C11705.4 3751.75 11688.2 3740.09 11673.5 3725.15C11659.2 3710.2 11648 3692.57 11639.9 3672.24C11631.8 3651.62 11627.8 3629.2 11627.8 3604.99C11627.8 3580.78 11631.7 3558.66 11639.5 3538.64C11647.5 3518.61 11658.7 3501.28 11673.1 3486.63C11687.7 3471.69 11704.9 3460.33 11724.7 3452.56C11744.4 3444.49 11766 3440.45 11789.7 3440.45C11816.3 3440.45 11840.2 3445.68 11861.4 3456.14C11882.9 3466.31 11900.4 3480.8 11913.8 3499.63C11927.6 3518.16 11936 3539.98 11939 3565.09H11871.7C11867.8 3542.08 11858.4 3524.74 11843.5 3513.08C11828.5 3501.13 11810.7 3495.15 11790.1 3495.15C11771.9 3495.15 11755.7 3499.48 11741.7 3508.15C11727.9 3516.82 11717.2 3529.37 11709.4 3545.81C11701.6 3561.95 11697.8 3581.53 11697.8 3604.54C11697.8 3627.86 11701.6 3648.03 11709.4 3665.07C11717.5 3681.81 11728.5 3694.81 11742.6 3704.07C11756.6 3713.04 11772.8 3717.52 11791 3717.52C11810.4 3717.52 11827.6 3711.7 11842.6 3700.04C11857.5 3688.38 11867.2 3671.05 11871.7 3648.03H11939.9C11936 3673.14 11927.1 3695.11 11913.4 3713.94C11899.7 3732.47 11882.2 3746.82 11860.9 3756.98C11839.7 3767.14 11816 3772.22 11789.7 3772.22Z" fill="#4C88FF"/>
<path d="M12102.6 3772.22C12056.6 3772.22 12022 3759.67 11999 3734.56C11976.3 3709.16 11965 3672.24 11965 3623.82V3444.94H12034V3635.93C12034 3664.02 12040.1 3684.65 12052.4 3697.8C12064.6 3710.95 12081.5 3717.52 12103 3717.52C12124.6 3717.52 12141.5 3710.95 12153.7 3697.8C12166 3684.65 12172.1 3664.17 12172.1 3636.38V3444.94H12241.1V3624.72C12241.1 3672.54 12229.6 3709.16 12206.6 3734.56C12183.6 3759.67 12148.9 3772.22 12102.6 3772.22Z" fill="#4C88FF"/>
<path d="M12371.7 3767.74V3497.84H12266.3V3444.94H12546.1V3497.84H12440.7V3767.74H12371.7Z" fill="#4C88FF"/>
<path d="M12574.7 3767.74V3444.94H12643.8V3767.74H12574.7Z" fill="#4C88FF"/>
<path d="M12840.5 3772.22C12816.6 3772.22 12794.5 3768.19 12774.2 3760.12C12754.2 3752.05 12736.7 3740.69 12721.7 3726.04C12707.1 3711.1 12695.6 3693.46 12687.2 3673.14C12679.1 3652.52 12675.1 3629.8 12675.1 3604.99C12675.1 3572.11 12682.1 3543.42 12696.2 3518.91C12710.2 3494.1 12729.7 3474.83 12754.5 3461.08C12779.6 3447.33 12808.1 3440.45 12840.1 3440.45C12872.7 3440.45 12901.4 3447.33 12926.2 3461.08C12951 3474.83 12970.4 3494.1 12984.5 3518.91C12998.8 3543.72 13006 3572.56 13006 3605.44C13006 3629.95 13001.8 3652.52 12993.4 3673.14C12985.4 3693.46 12973.9 3711.1 12958.9 3726.04C12944.3 3740.69 12926.8 3752.05 12906.4 3760.12C12886.4 3768.19 12864.5 3772.22 12840.5 3772.22ZM12840.1 3717.52C12858.9 3717.52 12875.5 3712.74 12889.9 3703.18C12904.2 3693.61 12915.4 3680.46 12923.5 3663.72C12931.9 3646.69 12936 3626.96 12936 3604.54C12936 3582.43 12932 3563.15 12923.9 3546.71C12915.9 3530.27 12904.7 3517.57 12890.3 3508.6C12876 3499.63 12859.2 3495.15 12840.1 3495.15C12821.3 3495.15 12804.7 3499.63 12790.3 3508.6C12776 3517.57 12764.8 3530.27 12756.7 3546.71C12748.9 3562.85 12745 3582.13 12745 3604.54C12745 3627.26 12749.1 3647.14 12757.2 3664.17C12765.2 3680.91 12776.4 3694.06 12790.8 3703.63C12805.1 3712.89 12821.6 3717.52 12840.1 3717.52Z" fill="#4C88FF"/>
<path d="M13037.3 3767.74V3444.94H13126.5L13270 3730.08L13248 3735.46V3444.94H13315.3V3767.74H13226L13082.6 3482.6L13104.5 3477.22V3767.74H13037.3Z" fill="#4C88FF"/>
<defs>
<clipPath id="paint0_angular_1312_960_clip_path"><path d="M2235.22 1215.05L3112.1 3017.45C3179.08 3103.09 3213.57 3118.52 3297.6 3118.52H4241.94C4241.94 3118.52 3010.92 676.822 2774.84 272.539C2538.75 -131.744 1883.34 -47.5166 1712.46 272.539C1541.57 592.594 194.76 3034.3 42.9973 3489.11C-108.766 3943.92 136.616 4375.51 852.432 4466.11C778.549 4422.86 662.351 4210.32 716.385 4112.36L1032.25 3568.66L2235.22 1215.05Z"/></clipPath><clipPath id="paint1_angular_1312_960_clip_path"><path d="M852.432 4466.11C852.432 4466.11 1594.4 4112.37 1931.68 3943.92C2268.95 3775.46 2757.97 4162.9 2757.97 4162.9C2757.97 4162.9 2527.39 3438.56 2420.71 3270.12C2314.03 3101.68 2134.03 3101.68 1948.54 3152.21C1763.05 3202.74 1032.25 3568.66 1032.25 3568.66L716.385 4112.36C662.351 4210.32 778.549 4422.86 852.432 4466.11Z"/></clipPath><clipPath id="paint2_angular_1312_960_clip_path"><path d="M4724.76 4362.64C4724.76 4705.49 4446.83 4983.41 4103.99 4983.41C3761.15 4983.41 3483.22 4705.49 3483.22 4362.64C3483.22 4019.8 3761.15 3741.87 4103.99 3741.87C4446.83 3741.87 4724.76 4019.8 4724.76 4362.64Z"/></clipPath></defs>
</svg>
